<svg width="30" height="30" viewBox="0 0 30 30" fill="none" xmlns="http://www.w3.org/2000/svg">
<path d="M5.92359 8.5874V4.30092C5.92359 3.93787 5.62928 3.64355 5.26623 3.64355H3.07582C2.71277 3.64355 2.41846 3.93787 2.41846 4.30092V8.5874" fill="#E5E9EA"/>
<path d="M4.01028 8.5874V3.64355H3.07582C2.71277 3.64355 2.41846 3.93787 2.41846 4.30092V8.5874" fill="#D1D1D1"/>
<path d="M30 9.36842V25.4062C30 26.5057 29.1086 27.3972 28.009 27.3972H1.99102C0.891445 27.3972 0 26.5057 0 25.4062V9.36842C0 8.26885 0.891445 7.3774 1.99102 7.3774H5.92793C6.7759 7.3774 7.53141 6.84045 7.80937 6.03906L8.53611 3.94152C8.81408 3.14008 9.56894 2.60254 10.4176 2.60254H22.0317C22.8796 2.60254 23.6345 3.14008 23.9125 3.94152L24.6398 6.03906C24.9178 6.84051 25.6726 7.3774 26.5206 7.3774H28.0089C29.1086 7.3774 30 8.26885 30 9.36842Z" fill="#FCB65F"/>
<path d="M3.55225 27.3967H1.99102C0.891445 27.3967 0 26.5053 0 25.4057V9.36797C0 8.2684 0.891445 7.37695 1.99102 7.37695H3.42855V7.38064C2.38652 7.44492 1.56123 8.31006 1.56123 9.36797V25.4057C1.56123 26.5053 2.45268 27.3967 3.55225 27.3967Z" fill="#E29A4B"/>
<path d="M11.9787 2.60254C11.1301 2.60254 10.3752 3.14008 10.0972 3.94152L9.37046 6.03906C9.09249 6.84051 8.33699 7.37741 7.48902 7.37741H6.15308V7.36457C6.90735 7.27885 7.55634 6.76885 7.80917 6.03906L8.53591 3.94152C8.81388 3.14008 9.56875 2.60254 10.4174 2.60254C10.4175 2.60254 11.9787 2.60254 11.9787 2.60254Z" fill="#E29A4B"/>
<path d="M30 12.7959V25.4063C30 26.5059 29.1086 27.3974 28.009 27.3974H1.99102C0.891445 27.3974 0 26.5059 0 25.4063V12.7959H30Z" fill="#53BCE9"/>
<path d="M3.55225 27.3973H1.99102C0.891445 27.3973 0 26.5059 0 25.4063V12.7959H1.56123V25.4064C1.56123 26.5059 2.45268 27.3973 3.55225 27.3973Z" fill="#36A6CE"/>
<path d="M15.0001 25.53C19.5815 25.53 23.2954 21.8161 23.2954 17.2347C23.2954 12.6534 19.5815 8.93945 15.0001 8.93945C10.4188 8.93945 6.70483 12.6534 6.70483 17.2347C6.70483 21.8161 10.4188 25.53 15.0001 25.53Z" fill="#E5E9EA"/>
<path d="M20.8652 17.2345C20.8652 18.9617 20.1189 20.5143 18.9305 21.5882C17.8903 22.528 16.5127 23.1004 14.9999 23.1004C13.4877 23.1004 12.1095 22.5279 11.0693 21.5881C9.88099 20.5149 9.13403 18.9616 9.13403 17.2344C9.13403 15.5073 9.88099 13.954 11.0693 12.8814C12.1095 11.941 13.4877 11.3691 14.9999 11.3691C16.5127 11.3691 17.8903 11.9416 18.9305 12.8814C20.1189 13.9547 20.8652 15.5073 20.8652 17.2345Z" fill="#566368"/>
<path d="M19.1471 13.0868C20.3684 14.308 20.9386 15.9336 20.8576 17.5333C19.2579 17.6142 17.6323 17.0441 16.411 15.8228C15.1898 14.6016 14.6196 12.976 14.701 11.3768C16.3002 11.2954 17.9259 11.8656 19.1471 13.0868Z" fill="#6F7B7F"/>
<path d="M13.5884 18.6454C14.8096 19.8667 15.3798 21.4923 15.2988 23.092C13.6996 23.1734 12.0731 22.6033 10.8519 21.3819C9.6306 20.1607 9.06042 18.5342 9.14222 16.9354C10.7415 16.8539 12.3671 17.4241 13.5884 18.6454Z" fill="#6F7B7F"/>
<path d="M14.9998 23.5596C11.5123 23.5596 8.67505 20.7223 8.67505 17.2349C8.67505 13.7474 11.5123 10.9102 14.9998 10.9102C18.4872 10.9102 21.3245 13.7474 21.3245 17.2349C21.3245 20.7224 18.4872 23.5596 14.9998 23.5596ZM14.9998 11.8285C12.0187 11.8285 9.59339 14.2538 9.59339 17.2349C9.59339 20.216 12.0187 22.6413 14.9998 22.6413C17.9808 22.6413 20.4062 20.216 20.4062 17.2349C20.4062 14.2538 17.9808 11.8285 14.9998 11.8285Z" fill="#435054"/>
<path d="M14.9999 14.8799C13.7015 14.8799 12.6453 15.9362 12.6453 17.2345C12.6453 18.5329 13.7015 19.5891 14.9999 19.5891C16.2982 19.5891 17.3545 18.5328 17.3545 17.2345C17.3545 15.9362 16.2982 14.8799 14.9999 14.8799Z" fill="#435054"/>
<path d="M17.9798 6.91907H21.5882C22.0626 6.91907 22.4472 6.53451 22.4472 6.06008V5.11485C22.4472 4.64047 22.0627 4.25586 21.5882 4.25586H17.9798C17.5055 4.25586 17.1208 4.64041 17.1208 5.11485V6.06008C17.1208 6.53446 17.5055 6.91907 17.9798 6.91907Z" fill="#E5E9EA"/>
<path d="M21.5882 7.37738H17.9798C17.253 7.37738 16.6616 6.78605 16.6616 6.0592V5.11408C16.6616 4.38723 17.253 3.7959 17.9798 3.7959H21.5882C22.315 3.7959 22.9064 4.38723 22.9064 5.11408V6.05926C22.9063 6.78611 22.315 7.37738 21.5882 7.37738ZM17.9798 4.71424C17.7593 4.71424 17.58 4.89359 17.58 5.11402V6.0592C17.58 6.27969 17.7593 6.45898 17.9798 6.45898H21.5882C21.8087 6.45898 21.988 6.27963 21.988 6.0592V5.11408C21.988 4.89359 21.8086 4.7143 21.5882 4.7143C21.5882 4.71424 17.9798 4.71424 17.9798 4.71424Z" fill="#E29A4B"/>
<path d="M5.70315 25.6978C6.62018 25.6978 7.36358 24.9544 7.36358 24.0374C7.36358 23.1204 6.62018 22.377 5.70315 22.377C4.78612 22.377 4.04272 23.1204 4.04272 24.0374C4.04272 24.9544 4.78612 25.6978 5.70315 25.6978Z" fill="#566368"/>
</svg>
