<svg width="30" height="30" viewBox="0 0 30 30" fill="none" xmlns="http://www.w3.org/2000/svg">
<path d="M28 4.31135C29.2383 4.47045 30.1214 5.59138 29.9863 6.83252L28.2292 22.3796C28.0941 23.6169 26.9814 24.5105 25.7441 24.3753C25.7193 24.3726 25.6946 24.3695 25.6699 24.3659H25.5553V10.1176C25.5553 8.85183 24.5291 7.82565 23.2633 7.82565H4.1637L4.58389 4.00572C4.74321 2.74645 5.88111 1.84625 7.14323 1.98115L28 4.31135Z" fill="#00ACEA"/>
<path d="M25.5552 24.3656V25.7408C25.5552 27.0066 24.5291 28.0328 23.2633 28.0328H2.29196C1.02618 28.0328 0 27.0066 0 25.7408V22.532L6.30286 17.9481C7.3022 17.1899 8.70061 17.2542 9.62618 18.1009L13.8281 21.7681C14.7088 22.5149 15.9658 22.6223 16.9604 22.0354L25.5552 16.9932V24.3656Z" fill="#00CEB4"/>
<path d="M25.5552 10.1181V16.994L16.9604 22.0363C15.9658 22.6231 14.7088 22.5158 13.8281 21.7689L9.62618 18.1018C8.70061 17.2551 7.3022 17.1907 6.30286 17.949L0 22.5329V10.1181C0 8.85235 1.02618 7.82617 2.29196 7.82617H23.2633C24.5291 7.82624 25.5552 8.85235 25.5552 10.1181Z" fill="#00EFD1"/>
<path d="M15.2797 16.535C16.6299 16.535 17.7245 15.4405 17.7245 14.0903C17.7245 12.7401 16.6299 11.6455 15.2797 11.6455C13.9295 11.6455 12.835 12.7401 12.835 14.0903C12.835 15.4405 13.9295 16.535 15.2797 16.535Z" fill="#D4E1F4"/>
</svg>
