<svg width="16" height="16" viewBox="0 0 16 16" fill="none" xmlns="http://www.w3.org/2000/svg">
<path d="M2.51693 6.28276C2.47968 6.2456 2.45012 6.20146 2.42996 6.15287C2.40979 6.10427 2.39941 6.05217 2.39941 5.99956C2.39941 5.94695 2.40979 5.89485 2.42996 5.84625C2.45012 5.79766 2.47968 5.75352 2.51693 5.71636L4.91693 3.31636C4.95409 3.27911 4.99823 3.24955 5.04682 3.22939C5.09542 3.20922 5.14752 3.19884 5.20013 3.19884C5.25274 3.19884 5.30484 3.20922 5.35344 3.22939C5.40203 3.24955 5.44617 3.27911 5.48333 3.31636L7.88333 5.71636C7.92052 5.75355 7.95002 5.7977 7.97015 5.84629C7.99028 5.89488 8.00064 5.94696 8.00064 5.99956C8.00064 6.05215 7.99028 6.10423 7.97015 6.15283C7.95002 6.20142 7.92052 6.24557 7.88333 6.28276C7.84614 6.31995 7.80199 6.34945 7.7534 6.36958C7.70481 6.38971 7.65273 6.40006 7.60013 6.40006C7.54753 6.40006 7.49545 6.38971 7.44686 6.36958C7.39827 6.34945 7.35412 6.31995 7.31693 6.28276L5.60013 4.56516V12.3996C5.60013 12.5056 5.55799 12.6074 5.48297 12.6824C5.40796 12.7574 5.30622 12.7996 5.20013 12.7996C5.09404 12.7996 4.9923 12.7574 4.91729 12.6824C4.84227 12.6074 4.80013 12.5056 4.80013 12.3996V4.56516L3.08333 6.28276C3.04617 6.32001 3.00203 6.34956 2.95344 6.36973C2.90484 6.38989 2.85274 6.40027 2.80013 6.40027C2.74752 6.40027 2.69542 6.38989 2.64682 6.36973C2.59823 6.34956 2.55409 6.32001 2.51693 6.28276Z" fill="#FA6464"/>
<path d="M8.11703 9.71674C8.15418 9.67949 8.19832 9.64994 8.24692 9.62977C8.29552 9.60961 8.34761 9.59923 8.40023 9.59923C8.45284 9.59923 8.50494 9.60961 8.55353 9.62977C8.60213 9.64994 8.64627 9.67949 8.68343 9.71674L10.4002 11.4343V3.59994C10.4002 3.49386 10.4424 3.39211 10.5174 3.3171C10.5924 3.24209 10.6941 3.19994 10.8002 3.19994C10.9063 3.19994 11.0081 3.24209 11.0831 3.3171C11.1581 3.39211 11.2002 3.49386 11.2002 3.59994V11.4343L12.917 9.71674C12.9921 9.64163 13.094 9.59944 13.2002 9.59944C13.3064 9.59944 13.4083 9.64163 13.4834 9.71674C13.5585 9.79185 13.6007 9.89372 13.6007 9.99994C13.6007 10.1062 13.5585 10.208 13.4834 10.2831L11.0834 12.6831C11.0463 12.7204 11.0021 12.7499 10.9535 12.7701C10.9049 12.7903 10.8528 12.8007 10.8002 12.8007C10.7476 12.8007 10.6955 12.7903 10.6469 12.7701C10.5983 12.7499 10.5542 12.7204 10.517 12.6831L8.11703 10.2831C8.07978 10.246 8.05022 10.2018 8.03006 10.1533C8.00989 10.1047 7.99951 10.0526 7.99951 9.99994C7.99951 9.94733 8.00989 9.89523 8.03006 9.84664C8.05022 9.79804 8.07978 9.7539 8.11703 9.71674Z" fill="#FA6464"/>
</svg>
