<svg width="124" height="124" viewBox="0 0 124 124" fill="none" xmlns="http://www.w3.org/2000/svg">
<circle cx="62" cy="62" r="62" fill="#2E50A3" fill-opacity="0.24"/>
<g clip-path="url(#clip0_1401_1873)">
<path d="M87.7199 100.75C86.1148 100.75 84.8137 99.4485 84.8137 97.8434C84.8137 86.4655 75.5571 77.209 64.1793 77.209H59.8199C48.4421 77.209 39.1855 86.4655 39.1855 97.8434C39.1855 99.4485 37.8844 100.75 36.2793 100.75C34.6742 100.75 33.373 99.4485 33.373 97.8434C33.373 83.2605 45.2371 71.3965 59.8199 71.3965H64.1793C78.7621 71.3965 90.6262 83.2605 90.6262 97.8434C90.6262 99.4485 89.325 100.75 87.7199 100.75Z" fill="#13283F"/>
<path d="M61.709 65.584C50.8921 65.584 42.0918 56.7837 42.0918 45.9668C42.0918 35.1499 50.8921 26.3496 61.709 26.3496C72.5259 26.3496 81.3262 35.1499 81.3262 45.9668C81.3262 56.7837 72.5259 65.584 61.709 65.584ZM61.709 32.1621C54.0971 32.1621 47.9043 38.3549 47.9043 45.9668C47.9043 53.5787 54.0971 59.7715 61.709 59.7715C69.3209 59.7715 75.5137 53.5787 75.5137 45.9668C75.5137 38.3549 69.3209 32.1621 61.709 32.1621Z" fill="#13283F"/>
</g>
<defs>
<clipPath id="clip0_1401_1873">
<rect width="74.4" height="74.4" fill="white" transform="translate(24.7998 26.3496)"/>
</clipPath>
</defs>
</svg>
