<svg width="96" height="17" viewBox="0 0 96 17" fill="none" xmlns="http://www.w3.org/2000/svg">
<path d="M0 16.1424H4.7836C4.90172 16.1424 5.14837 16.1388 5.52355 16.1317C5.90568 16.1246 6.26697 16.0997 6.60742 16.0571C7.80245 15.9006 8.80989 15.4704 9.62973 14.7664C10.4496 14.0553 11.0714 13.1522 11.4952 12.0571C11.9191 10.962 12.131 9.76374 12.131 8.4624C12.131 7.16107 11.9191 5.96285 11.4952 4.86774C11.0714 3.77262 10.4496 2.86951 9.62973 2.1584C8.80989 1.44729 7.80245 1.01707 6.60742 0.867736C6.26002 0.825069 5.89873 0.80018 5.52355 0.793069C5.15531 0.785958 4.90866 0.782402 4.7836 0.782402H0V16.1424ZM2.55334 13.7211V3.20374H4.7836C4.99204 3.20374 5.25606 3.21085 5.57566 3.22507C5.89526 3.23218 6.1836 3.26418 6.44067 3.32107C7.13545 3.45618 7.70518 3.77262 8.14984 4.2704C8.5945 4.76818 8.92453 5.38329 9.13991 6.11574C9.36224 6.84107 9.47341 7.62329 9.47341 8.4624C9.47341 9.26596 9.36919 10.034 9.16075 10.7664C8.95232 11.4988 8.62229 12.1211 8.17068 12.6331C7.72602 13.138 7.14935 13.4615 6.44067 13.6037C6.1836 13.6535 5.89526 13.6855 5.57566 13.6997C5.25606 13.714 4.99204 13.7211 4.7836 13.7211H2.55334Z" fill="#13283F"/>
<path d="M14.5946 16.1424H17.1062V9.65707H24.2139V16.1424H26.7151V0.782402H24.2139V7.2464H17.1062V0.782402H14.5946V16.1424Z" fill="#13283F"/>
<path d="M35.9838 16.4624C37.4846 16.4624 38.7699 16.1282 39.8399 15.4597C40.9168 14.7842 41.7401 13.8455 42.3099 12.6437C42.8865 11.442 43.1749 10.0482 43.1749 8.4624C43.1749 6.86951 42.8865 5.47574 42.3099 4.28107C41.7401 3.07929 40.9168 2.14418 39.8399 1.47573C38.7699 0.80018 37.4846 0.462402 35.9838 0.462402C34.49 0.462402 33.2047 0.80018 32.1278 1.47573C31.0578 2.14418 30.2345 3.07929 29.6578 4.28107C29.0881 5.47574 28.8032 6.86951 28.8032 8.4624C28.8032 10.0482 29.0881 11.442 29.6578 12.6437C30.2345 13.8455 31.0578 14.7842 32.1278 15.4597C33.2047 16.1282 34.49 16.4624 35.9838 16.4624ZM35.9838 14.0411C34.4762 14.0197 33.3437 13.5042 32.5863 12.4944C31.829 11.4846 31.4538 10.1406 31.4608 8.4624C31.4677 7.33885 31.6379 6.35751 31.9714 5.5184C32.3049 4.67929 32.8052 4.02862 33.4722 3.5664C34.1392 3.09707 34.9764 2.86951 35.9838 2.88374C37.4985 2.90507 38.631 3.42062 39.3813 4.4304C40.1387 5.44018 40.5173 6.78418 40.5173 8.4624C40.5173 9.57885 40.3471 10.5602 40.0066 11.4064C39.6732 12.2455 39.1694 12.8962 38.4955 13.3584C37.8285 13.8206 36.9913 14.0482 35.9838 14.0411Z" fill="#13283F"/>
<path d="M45.2493 16.1424H47.7609V10.7771H51.3252L53.8681 16.1424H56.7133L53.9411 10.3184C54.7957 9.92729 55.4314 9.33351 55.8483 8.53707C56.2651 7.74062 56.4736 6.82329 56.4736 5.78507C56.4736 4.51218 56.1609 3.42774 55.5356 2.53174C54.9172 1.62862 53.955 1.07396 52.6488 0.867736C52.4542 0.83218 52.2423 0.810847 52.013 0.803735C51.7838 0.789513 51.5962 0.782402 51.4503 0.782402H45.2493V16.1424ZM47.7609 8.37707V3.19307H51.346C51.485 3.19307 51.6413 3.20018 51.815 3.2144C51.9887 3.22862 52.1485 3.25351 52.2944 3.28907C52.7113 3.39574 53.0378 3.58774 53.2741 3.86507C53.5173 4.13529 53.6875 4.44107 53.7847 4.7824C53.889 5.12374 53.9411 5.45796 53.9411 5.78507C53.9411 6.11218 53.889 6.4464 53.7847 6.78774C53.6875 7.12907 53.5173 7.43485 53.2741 7.70507C53.0378 7.97529 52.7113 8.16374 52.2944 8.2704C52.1485 8.31307 51.9887 8.34151 51.815 8.35574C51.6413 8.36996 51.485 8.37707 51.346 8.37707H47.7609Z" fill="#13283F"/>
<path d="M65.3562 16.4624C66.8569 16.4624 68.1423 16.1282 69.2122 15.4597C70.2892 14.7842 71.1125 13.8455 71.6822 12.6437C72.2589 11.442 72.5472 10.0482 72.5472 8.4624C72.5472 6.86951 72.2589 5.47574 71.6822 4.28107C71.1125 3.07929 70.2892 2.14418 69.2122 1.47573C68.1423 0.80018 66.8569 0.462402 65.3562 0.462402C63.8624 0.462402 62.577 0.80018 61.5001 1.47573C60.4302 2.14418 59.6068 3.07929 59.0302 4.28107C58.4604 5.47574 58.1756 6.86951 58.1756 8.4624C58.1756 10.0482 58.4604 11.442 59.0302 12.6437C59.6068 13.8455 60.4302 14.7842 61.5001 15.4597C62.577 16.1282 63.8624 16.4624 65.3562 16.4624ZM65.3562 14.0411C63.8485 14.0197 62.716 13.5042 61.9587 12.4944C61.2014 11.4846 60.8262 10.1406 60.8331 8.4624C60.8401 7.33885 61.0103 6.35751 61.3438 5.5184C61.6773 4.67929 62.1775 4.02862 62.8445 3.5664C63.5115 3.09707 64.3487 2.86951 65.3562 2.88374C66.8708 2.90507 68.0033 3.42062 68.7537 4.4304C69.511 5.44018 69.8897 6.78418 69.8897 8.4624C69.8897 9.57885 69.7194 10.5602 69.379 11.4064C69.0455 12.2455 68.5418 12.8962 67.8678 13.3584C67.2009 13.8206 66.3636 14.0482 65.3562 14.0411Z" fill="#13283F"/>
<path d="M74.9968 16.1424H77.3V13.7851H74.9968V16.1424Z" fill="#13283F"/>
<path d="M80.7941 2.58507H82.6492V0.622402H80.7941V2.58507ZM80.7941 16.1424H82.6492V4.6224H80.7941V16.1424Z" fill="#13283F"/>
<path d="M90.5702 16.4624C91.6888 16.4624 92.6511 16.2064 93.4571 15.6944C94.27 15.1824 94.8953 14.4677 95.333 13.5504C95.7777 12.6331 96 11.5735 96 10.3717C96 9.18418 95.7811 8.13529 95.3434 7.22507C94.9127 6.30774 94.2908 5.59307 93.4779 5.08107C92.665 4.56196 91.6958 4.3024 90.5702 4.3024C89.4725 4.3024 88.5172 4.5584 87.7043 5.0704C86.8913 5.57529 86.2626 6.28285 85.8179 7.19307C85.3732 8.10329 85.1509 9.16285 85.1509 10.3717C85.1509 11.5593 85.3663 12.6117 85.7971 13.5291C86.2348 14.4464 86.8601 15.1646 87.673 15.6837C88.4859 16.2028 89.4516 16.4624 90.5702 16.4624ZM90.5702 14.6597C89.4377 14.6597 88.5797 14.2722 87.9961 13.4971C87.4124 12.7148 87.1206 11.6731 87.1206 10.3717C87.1206 9.11307 87.402 8.08907 87.9648 7.29974C88.5276 6.50329 89.396 6.10507 90.5702 6.10507C91.7236 6.10507 92.5886 6.49262 93.1653 7.26774C93.7419 8.04285 94.0303 9.07751 94.0303 10.3717C94.0303 11.6375 93.7419 12.6686 93.1653 13.4651C92.5956 14.2615 91.7305 14.6597 90.5702 14.6597Z" fill="#13283F"/>
</svg>
