<svg width="176" height="19" viewBox="0 0 176 19" fill="none" xmlns="http://www.w3.org/2000/svg">
<path d="M0.68 18H6.188C6.324 18 6.608 17.996 7.04 17.988C7.48 17.98 7.896 17.952 8.288 17.904C9.664 17.728 10.824 17.244 11.768 16.452C12.712 15.652 13.428 14.636 13.916 13.404C14.404 12.172 14.648 10.824 14.648 9.36C14.648 7.896 14.404 6.548 13.916 5.316C13.428 4.084 12.712 3.068 11.768 2.268C10.824 1.468 9.664 0.984 8.288 0.816C7.888 0.767999 7.472 0.739999 7.04 0.732C6.616 0.724 6.332 0.719999 6.188 0.719999H0.68V18ZM3.62 15.276V3.444H6.188C6.428 3.444 6.732 3.452 7.1 3.468C7.468 3.476 7.8 3.512 8.096 3.576C8.896 3.728 9.552 4.084 10.064 4.644C10.576 5.204 10.956 5.896 11.204 6.72C11.46 7.536 11.588 8.416 11.588 9.36C11.588 10.264 11.468 11.128 11.228 11.952C10.988 12.776 10.608 13.476 10.088 14.052C9.576 14.62 8.912 14.984 8.096 15.144C7.8 15.2 7.468 15.236 7.1 15.252C6.732 15.268 6.428 15.276 6.188 15.276H3.62ZM17.4847 18H20.3767V10.704H28.5607V18H31.4407V0.719999H28.5607V7.992H20.3767V0.719999H17.4847V18ZM42.113 18.36C43.841 18.36 45.321 17.984 46.553 17.232C47.793 16.472 48.741 15.416 49.397 14.064C50.061 12.712 50.393 11.144 50.393 9.36C50.393 7.568 50.061 6 49.397 4.656C48.741 3.304 47.793 2.252 46.553 1.5C45.321 0.739999 43.841 0.36 42.113 0.36C40.393 0.36 38.913 0.739999 37.673 1.5C36.441 2.252 35.493 3.304 34.829 4.656C34.173 6 33.845 7.568 33.845 9.36C33.845 11.144 34.173 12.712 34.829 14.064C35.493 15.416 36.441 16.472 37.673 17.232C38.913 17.984 40.393 18.36 42.113 18.36ZM42.113 15.636C40.377 15.612 39.073 15.032 38.201 13.896C37.329 12.76 36.897 11.248 36.905 9.36C36.913 8.096 37.109 6.992 37.493 6.048C37.877 5.104 38.453 4.372 39.221 3.852C39.989 3.324 40.953 3.068 42.113 3.084C43.857 3.108 45.161 3.688 46.025 4.824C46.897 5.96 47.333 7.472 47.333 9.36C47.333 10.616 47.137 11.72 46.745 12.672C46.361 13.616 45.781 14.348 45.005 14.868C44.237 15.388 43.273 15.644 42.113 15.636ZM52.7816 18H55.6736V11.964H59.7776L62.7056 18H65.9816L62.7896 11.448C63.7736 11.008 64.5056 10.34 64.9856 9.444C65.4656 8.548 65.7056 7.516 65.7056 6.348C65.7056 4.916 65.3456 3.696 64.6256 2.688C63.9136 1.672 62.8056 1.048 61.3016 0.816C61.0776 0.776 60.8336 0.751999 60.5696 0.743999C60.3056 0.727999 60.0896 0.719999 59.9216 0.719999H52.7816V18ZM55.6736 9.264V3.432H59.8016C59.9616 3.432 60.1416 3.44 60.3416 3.456C60.5416 3.472 60.7256 3.5 60.8936 3.54C61.3736 3.66 61.7496 3.876 62.0216 4.188C62.3016 4.492 62.4976 4.836 62.6096 5.22C62.7296 5.604 62.7896 5.98 62.7896 6.348C62.7896 6.716 62.7296 7.092 62.6096 7.476C62.4976 7.86 62.3016 8.204 62.0216 8.508C61.7496 8.812 61.3736 9.024 60.8936 9.144C60.7256 9.192 60.5416 9.224 60.3416 9.24C60.1416 9.256 59.9616 9.264 59.8016 9.264H55.6736ZM75.9333 18.36C77.6613 18.36 79.1413 17.984 80.3733 17.232C81.6133 16.472 82.5613 15.416 83.2173 14.064C83.8813 12.712 84.2133 11.144 84.2133 9.36C84.2133 7.568 83.8813 6 83.2173 4.656C82.5613 3.304 81.6133 2.252 80.3733 1.5C79.1413 0.739999 77.6613 0.36 75.9333 0.36C74.2133 0.36 72.7333 0.739999 71.4933 1.5C70.2613 2.252 69.3133 3.304 68.6493 4.656C67.9933 6 67.6653 7.568 67.6653 9.36C67.6653 11.144 67.9933 12.712 68.6493 14.064C69.3133 15.416 70.2613 16.472 71.4933 17.232C72.7333 17.984 74.2133 18.36 75.9333 18.36ZM75.9333 15.636C74.1973 15.612 72.8933 15.032 72.0213 13.896C71.1493 12.76 70.7173 11.248 70.7253 9.36C70.7333 8.096 70.9293 6.992 71.3133 6.048C71.6973 5.104 72.2733 4.372 73.0413 3.852C73.8093 3.324 74.7733 3.068 75.9333 3.084C77.6773 3.108 78.9813 3.688 79.8453 4.824C80.7173 5.96 81.1533 7.472 81.1533 9.36C81.1533 10.616 80.9573 11.72 80.5653 12.672C80.1813 13.616 79.6013 14.348 78.8253 14.868C78.0573 15.388 77.0933 15.644 75.9333 15.636ZM87.0339 18H89.6859V15.348H87.0339V18ZM94.7051 18H96.8411V6.804H100.249V5.04H96.8411V3.996C96.8411 2.756 97.4691 2.136 98.7251 2.136H100.249V0.36H98.6051C98.1171 0.36 97.5931 0.408 97.0331 0.503999C96.4731 0.592 95.9691 0.88 95.5211 1.368C95.1371 1.784 94.9051 2.26 94.8251 2.796C94.7451 3.324 94.7051 3.836 94.7051 4.332V5.04H92.5091V6.804H94.7051V18ZM102.769 2.748H104.905V0.539999H102.769V2.748ZM102.769 18H104.905V5.04H102.769V18ZM108.504 18H110.664V11.172C110.664 9.668 110.988 8.552 111.636 7.824C112.292 7.096 113.156 6.732 114.228 6.732C115.14 6.732 115.852 6.96 116.364 7.416C116.876 7.872 117.232 8.464 117.432 9.192C117.64 9.92 117.744 10.692 117.744 11.508V18H119.904V10.836C119.904 10.22 119.828 9.56 119.676 8.856C119.532 8.144 119.268 7.476 118.884 6.852C118.508 6.22 117.984 5.704 117.312 5.304C116.648 4.904 115.792 4.704 114.744 4.704C112.856 4.704 111.416 5.372 110.424 6.708V5.04H108.504V18ZM126.708 18.36C128.868 18.36 130.468 17.568 131.508 15.984V18H133.404V9.984C133.404 9.472 133.38 8.984 133.332 8.52C133.284 8.048 133.168 7.612 132.984 7.212C132.616 6.364 132.008 5.732 131.16 5.316C130.312 4.892 129.304 4.68 128.136 4.68C126.672 4.68 125.488 5.004 124.584 5.652C123.688 6.3 123.088 7.192 122.784 8.328L124.812 8.94C125.044 8.148 125.456 7.572 126.048 7.212C126.64 6.852 127.328 6.672 128.112 6.672C129.232 6.672 130.036 6.924 130.524 7.428C131.02 7.924 131.28 8.688 131.304 9.72C130.344 9.856 129.336 10 128.28 10.152C127.232 10.296 126.3 10.476 125.484 10.692C124.5 10.98 123.724 11.432 123.156 12.048C122.588 12.656 122.304 13.472 122.304 14.496C122.304 15.192 122.468 15.832 122.796 16.416C123.132 17 123.624 17.472 124.272 17.832C124.928 18.184 125.74 18.36 126.708 18.36ZM127.032 16.572C126.112 16.572 125.448 16.36 125.04 15.936C124.632 15.504 124.428 15.02 124.428 14.484C124.428 13.876 124.628 13.412 125.028 13.092C125.436 12.764 125.908 12.516 126.444 12.348C127.076 12.172 127.812 12.024 128.652 11.904C129.492 11.784 130.368 11.664 131.28 11.544C131.28 11.84 131.264 12.176 131.232 12.552C131.208 12.928 131.152 13.272 131.064 13.584C130.912 14.384 130.488 15.084 129.792 15.684C129.104 16.276 128.184 16.572 127.032 16.572ZM136.512 18H138.672V11.172C138.672 9.668 138.996 8.552 139.644 7.824C140.3 7.096 141.164 6.732 142.236 6.732C143.148 6.732 143.86 6.96 144.372 7.416C144.884 7.872 145.24 8.464 145.44 9.192C145.648 9.92 145.752 10.692 145.752 11.508V18H147.912V10.836C147.912 10.22 147.836 9.56 147.684 8.856C147.54 8.144 147.276 7.476 146.892 6.852C146.516 6.22 145.992 5.704 145.32 5.304C144.656 4.904 143.8 4.704 142.752 4.704C140.864 4.704 139.424 5.372 138.432 6.708V5.04H136.512V18ZM156.374 18.36C157.71 18.36 158.854 18.04 159.806 17.4C160.758 16.76 161.462 15.836 161.918 14.628L159.758 14.064C159.158 15.576 158.03 16.332 156.374 16.332C155.086 16.332 154.114 15.892 153.458 15.012C152.81 14.132 152.478 12.968 152.462 11.52C152.478 10.112 152.802 8.96 153.434 8.064C154.066 7.16 155.046 6.708 156.374 6.708C157.158 6.708 157.858 6.916 158.474 7.332C159.09 7.748 159.534 8.332 159.806 9.084L161.918 8.448C161.574 7.28 160.906 6.36 159.914 5.688C158.93 5.016 157.758 4.68 156.398 4.68C155.102 4.68 153.99 4.972 153.062 5.556C152.142 6.132 151.438 6.932 150.95 7.956C150.462 8.98 150.21 10.168 150.194 11.52C150.21 12.84 150.458 14.016 150.938 15.048C151.418 16.08 152.114 16.892 153.026 17.484C153.946 18.068 155.062 18.36 156.374 18.36ZM169.632 18.36C170.888 18.36 172.02 18.048 173.028 17.424C174.036 16.792 174.796 15.904 175.308 14.76L173.256 14.052C172.512 15.572 171.272 16.332 169.536 16.332C168.344 16.332 167.408 15.968 166.728 15.24C166.056 14.504 165.676 13.464 165.588 12.12H175.524C175.588 10.584 175.388 9.26 174.924 8.148C174.468 7.036 173.78 6.18 172.86 5.58C171.948 4.98 170.84 4.68 169.536 4.68C168.28 4.68 167.184 4.964 166.248 5.532C165.312 6.092 164.584 6.892 164.064 7.932C163.552 8.964 163.296 10.188 163.296 11.604C163.296 12.956 163.556 14.14 164.076 15.156C164.604 16.164 165.344 16.952 166.296 17.52C167.248 18.08 168.36 18.36 169.632 18.36ZM169.608 6.6C171.808 6.6 173.04 7.868 173.304 10.404H165.624C165.776 9.172 166.188 8.232 166.86 7.584C167.532 6.928 168.448 6.6 169.608 6.6Z" fill="#13283F"/>
</svg>
