<svg width="64" height="64" viewBox="0 0 64 64" fill="none" xmlns="http://www.w3.org/2000/svg">
<circle cx="32" cy="32" r="32" fill="#13283F"/>
<path d="M13.344 39.2H17.6736C17.8016 39.2 18.0384 39.1968 18.384 39.1904C18.736 39.184 19.072 39.1584 19.392 39.1136C20.4736 38.9728 21.3824 38.5856 22.1184 37.952C22.8608 37.312 23.4208 36.5024 23.7984 35.5232C24.176 34.5376 24.3648 33.4592 24.3648 32.288C24.3648 31.1104 24.176 30.032 23.7984 29.0528C23.4208 28.0672 22.8608 27.2576 22.1184 26.624C21.3824 25.984 20.4736 25.5968 19.392 25.4624C19.072 25.4176 18.736 25.392 18.384 25.3856C18.0384 25.3792 17.8016 25.376 17.6736 25.376H13.344V39.2ZM15.3984 37.2896V27.2864H17.6736C17.8848 27.2864 18.1408 27.2928 18.4416 27.3056C18.7488 27.312 19.0176 27.3376 19.248 27.3824C19.9392 27.5104 20.5024 27.8112 20.9376 28.2848C21.3792 28.752 21.7056 29.3344 21.9168 30.032C22.128 30.7232 22.2336 31.4752 22.2336 32.288C22.2336 33.0752 22.1312 33.8176 21.9264 34.5152C21.7216 35.2128 21.3984 35.8016 20.9568 36.2816C20.5216 36.7552 19.952 37.0592 19.248 37.1936C19.0176 37.2384 18.752 37.2672 18.4512 37.28C18.1568 37.2864 17.8976 37.2896 17.6736 37.2896H15.3984ZM26.6003 39.2H28.6067V33.2288H35.5187V39.2H37.5347V25.376H35.5187V31.3376H28.6067V25.376H26.6003V39.2ZM40.2315 39.2H42.2379V34.2368H45.9051L48.3147 39.2H50.6091L47.9979 33.8432C48.7851 33.504 49.3739 32.976 49.7643 32.2592C50.1547 31.5424 50.3499 30.7232 50.3499 29.8016C50.3499 28.6816 50.0619 27.7216 49.4859 26.9216C48.9099 26.1216 48.0427 25.632 46.8843 25.4528C46.7051 25.4208 46.5163 25.4016 46.3179 25.3952C46.1195 25.3824 45.9531 25.376 45.8187 25.376H40.2315V39.2ZM42.2379 32.336V27.2672H45.7419C45.8699 27.2672 46.0107 27.2736 46.1643 27.2864C46.3243 27.2992 46.4747 27.3248 46.6155 27.3632C47.2299 27.504 47.6651 27.8176 47.9211 28.304C48.1771 28.7904 48.3051 29.2896 48.3051 29.8016C48.3051 30.3072 48.1771 30.8064 47.9211 31.2992C47.6651 31.7856 47.2299 32.1024 46.6155 32.2496C46.4747 32.2816 46.3243 32.304 46.1643 32.3168C46.0107 32.3296 45.8699 32.336 45.7419 32.336H42.2379Z" fill="#F9FAFF"/>
</svg>
