<svg width="116" height="116" viewBox="0 0 116 116" fill="none" xmlns="http://www.w3.org/2000/svg">
<path d="M4.87 0.25H0.25V4.87H4.87V0.25Z" fill="#13283F"/>
<path d="M9.49 0.25H4.87V4.87H9.49V0.25Z" fill="#13283F"/>
<path d="M14.11 0.25H9.49V4.87H14.11V0.25Z" fill="#13283F"/>
<path d="M18.73 0.25H14.11V4.87H18.73V0.25Z" fill="#13283F"/>
<path d="M23.35 0.25H18.73V4.87H23.35V0.25Z" fill="#13283F"/>
<path d="M27.97 0.25H23.35V4.87H27.97V0.25Z" fill="#13283F"/>
<path d="M32.59 0.25H27.97V4.87H32.59V0.25Z" fill="#13283F"/>
<path d="M41.83 0.25H37.21V4.87H41.83V0.25Z" fill="#13283F"/>
<path d="M46.45 0.25H41.83V4.87H46.45V0.25Z" fill="#13283F"/>
<path d="M51.07 0.25H46.45V4.87H51.07V0.25Z" fill="#13283F"/>
<path d="M55.69 0.25H51.07V4.87H55.69V0.25Z" fill="#13283F"/>
<path d="M60.31 0.25H55.69V4.87H60.31V0.25Z" fill="#13283F"/>
<path d="M69.55 0.25H64.93V4.87H69.55V0.25Z" fill="#13283F"/>
<path d="M78.79 0.25H74.17V4.87H78.79V0.25Z" fill="#13283F"/>
<path d="M88.03 0.25H83.41V4.87H88.03V0.25Z" fill="#13283F"/>
<path d="M92.65 0.25H88.03V4.87H92.65V0.25Z" fill="#13283F"/>
<path d="M97.27 0.25H92.65V4.87H97.27V0.25Z" fill="#13283F"/>
<path d="M101.89 0.25H97.27V4.87H101.89V0.25Z" fill="#13283F"/>
<path d="M106.51 0.25H101.89V4.87H106.51V0.25Z" fill="#13283F"/>
<path d="M111.13 0.25H106.51V4.87H111.13V0.25Z" fill="#13283F"/>
<path d="M115.75 0.25H111.13V4.87H115.75V0.25Z" fill="#13283F"/>
<path d="M4.87 4.87H0.25V9.49H4.87V4.87Z" fill="#13283F"/>
<path d="M32.59 4.87H27.97L27.97 9.49H32.59V4.87Z" fill="#13283F"/>
<path d="M55.69 4.87H51.07V9.49H55.69V4.87Z" fill="#13283F"/>
<path d="M60.31 4.87H55.69V9.49H60.31V4.87Z" fill="#13283F"/>
<path d="M64.93 4.87H60.31V9.49H64.93V4.87Z" fill="#13283F"/>
<path d="M69.55 4.87H64.93V9.49H69.55V4.87Z" fill="#13283F"/>
<path d="M78.79 4.87H74.17V9.49H78.79V4.87Z" fill="#13283F"/>
<path d="M88.03 4.87H83.41V9.49H88.03V4.87Z" fill="#13283F"/>
<path d="M115.75 4.87H111.13V9.49H115.75V4.87Z" fill="#13283F"/>
<path d="M4.87 9.49H0.25V14.11H4.87V9.49Z" fill="#13283F"/>
<path d="M14.11 9.49H9.49V14.11H14.11V9.49Z" fill="#13283F"/>
<path d="M18.73 9.49H14.11V14.11H18.73V9.49Z" fill="#13283F"/>
<path d="M23.35 9.49H18.73V14.11H23.35V9.49Z" fill="#13283F"/>
<path d="M32.59 9.49H27.97V14.11H32.59V9.49Z" fill="#13283F"/>
<path d="M41.83 9.49H37.21V14.11H41.83V9.49Z" fill="#13283F"/>
<path d="M46.45 9.49H41.83V14.11H46.45V9.49Z" fill="#13283F"/>
<path d="M55.69 9.49H51.07V14.11H55.69V9.49Z" fill="#13283F"/>
<path d="M60.31 9.49H55.69V14.11H60.31V9.49Z" fill="#13283F"/>
<path d="M88.03 9.49H83.41V14.11H88.03V9.49Z" fill="#13283F"/>
<path d="M97.27 9.49H92.65V14.11H97.27V9.49Z" fill="#13283F"/>
<path d="M101.89 9.49H97.27V14.11H101.89V9.49Z" fill="#13283F"/>
<path d="M106.51 9.49H101.89V14.11H106.51V9.49Z" fill="#13283F"/>
<path d="M115.75 9.49H111.13V14.11H115.75V9.49Z" fill="#13283F"/>
<path d="M4.87 14.11H0.25V18.73H4.87V14.11Z" fill="#13283F"/>
<path d="M14.11 14.11H9.49V18.73H14.11V14.11Z" fill="#13283F"/>
<path d="M18.73 14.11H14.11V18.73H18.73V14.11Z" fill="#13283F"/>
<path d="M23.35 14.11H18.73V18.73H23.35V14.11Z" fill="#13283F"/>
<path d="M32.59 14.11H27.97V18.73H32.59V14.11Z" fill="#13283F"/>
<path d="M51.07 14.11H46.45V18.73H51.07V14.11Z" fill="#13283F"/>
<path d="M69.55 14.11H64.93V18.73H69.55V14.11Z" fill="#13283F"/>
<path d="M78.79 14.11H74.17V18.73H78.79V14.11Z" fill="#13283F"/>
<path d="M88.03 14.11H83.41V18.73H88.03V14.11Z" fill="#13283F"/>
<path d="M97.27 14.11H92.65V18.73H97.27V14.11Z" fill="#13283F"/>
<path d="M101.89 14.11H97.27V18.73H101.89V14.11Z" fill="#13283F"/>
<path d="M106.51 14.11H101.89V18.73H106.51V14.11Z" fill="#13283F"/>
<path d="M115.75 14.11H111.13V18.73H115.75V14.11Z" fill="#13283F"/>
<path d="M4.87 18.73H0.25V23.35H4.87V18.73Z" fill="#13283F"/>
<path d="M14.11 18.73H9.49V23.35H14.11V18.73Z" fill="#13283F"/>
<path d="M18.73 18.73H14.11V23.35H18.73V18.73Z" fill="#13283F"/>
<path d="M23.35 18.73H18.73V23.35H23.35V18.73Z" fill="#13283F"/>
<path d="M32.59 18.73H27.97V23.35H32.59V18.73Z" fill="#13283F"/>
<path d="M51.07 18.73H46.45V23.35H51.07V18.73Z" fill="#13283F"/>
<path d="M60.31 18.73H55.69V23.35H60.31V18.73Z" fill="#13283F"/>
<path d="M64.93 18.73H60.31V23.35H64.93V18.73Z" fill="#13283F"/>
<path d="M69.55 18.73H64.93V23.35H69.55V18.73Z" fill="#13283F"/>
<path d="M74.17 18.73H69.55V23.35H74.17V18.73Z" fill="#13283F"/>
<path d="M78.79 18.73H74.17V23.35H78.79V18.73Z" fill="#13283F"/>
<path d="M88.03 18.73H83.41V23.35H88.03V18.73Z" fill="#13283F"/>
<path d="M97.27 18.73H92.65V23.35H97.27V18.73Z" fill="#13283F"/>
<path d="M101.89 18.73H97.27V23.35H101.89V18.73Z" fill="#13283F"/>
<path d="M106.51 18.73H101.89V23.35H106.51V18.73Z" fill="#13283F"/>
<path d="M115.75 18.73H111.13V23.35H115.75V18.73Z" fill="#13283F"/>
<path d="M4.87 23.35H0.25V27.97H4.87V23.35Z" fill="#13283F"/>
<path d="M32.59 23.35H27.97V27.97H32.59V23.35Z" fill="#13283F"/>
<path d="M51.07 23.35H46.45V27.97H51.07V23.35Z" fill="#13283F"/>
<path d="M60.31 23.35H55.69V27.97H60.31V23.35Z" fill="#13283F"/>
<path d="M64.93 23.35H60.31V27.97H64.93V23.35Z" fill="#13283F"/>
<path d="M69.55 23.35H64.93V27.97H69.55V23.35Z" fill="#13283F"/>
<path d="M88.03 23.35H83.41V27.97H88.03V23.35Z" fill="#13283F"/>
<path d="M115.75 23.35H111.13V27.97H115.75V23.35Z" fill="#13283F"/>
<path d="M4.87 27.97H0.25V32.59H4.87V27.97Z" fill="#13283F"/>
<path d="M9.49 27.97L4.87 27.97V32.59H9.49V27.97Z" fill="#13283F"/>
<path d="M14.11 27.97H9.49V32.59H14.11V27.97Z" fill="#13283F"/>
<path d="M18.73 27.97H14.11V32.59H18.73V27.97Z" fill="#13283F"/>
<path d="M23.35 27.97H18.73V32.59H23.35V27.97Z" fill="#13283F"/>
<path d="M27.97 27.97L23.35 27.97V32.59H27.97L27.97 27.97Z" fill="#13283F"/>
<path d="M32.59 27.97H27.97L27.97 32.59H32.59V27.97Z" fill="#13283F"/>
<path d="M41.83 27.97H37.21V32.59H41.83V27.97Z" fill="#13283F"/>
<path d="M51.07 27.97H46.45V32.59H51.07V27.97Z" fill="#13283F"/>
<path d="M60.31 27.97H55.69V32.59H60.31V27.97Z" fill="#13283F"/>
<path d="M69.55 27.97H64.93V32.59H69.55V27.97Z" fill="#13283F"/>
<path d="M78.79 27.97H74.17V32.59H78.79V27.97Z" fill="#13283F"/>
<path d="M88.03 27.97H83.41V32.59H88.03V27.97Z" fill="#13283F"/>
<path d="M92.65 27.97L88.03 27.97V32.59H92.65V27.97Z" fill="#13283F"/>
<path d="M97.27 27.97H92.65V32.59H97.27V27.97Z" fill="#13283F"/>
<path d="M101.89 27.97H97.27V32.59H101.89V27.97Z" fill="#13283F"/>
<path d="M106.51 27.97H101.89V32.59H106.51V27.97Z" fill="#13283F"/>
<path d="M111.13 27.97L106.51 27.97V32.59H111.13V27.97Z" fill="#13283F"/>
<path d="M115.75 27.97H111.13V32.59H115.75V27.97Z" fill="#13283F"/>
<path d="M41.83 32.59H37.21V37.21H41.83V32.59Z" fill="#13283F"/>
<path d="M46.45 32.59H41.83V37.21H46.45V32.59Z" fill="#13283F"/>
<path d="M60.31 32.59H55.69V37.21H60.31V32.59Z" fill="#13283F"/>
<path d="M64.93 32.59H60.31V37.21H64.93V32.59Z" fill="#13283F"/>
<path d="M69.55 32.59H64.93V37.21H69.55V32.59Z" fill="#13283F"/>
<path d="M78.79 32.59H74.17V37.21H78.79V32.59Z" fill="#13283F"/>
<path d="M4.87 37.21H0.25V41.83H4.87V37.21Z" fill="#13283F"/>
<path d="M14.11 37.21H9.49V41.83H14.11V37.21Z" fill="#13283F"/>
<path d="M27.97 37.21H23.35V41.83H27.97V37.21Z" fill="#13283F"/>
<path d="M32.59 37.21H27.97V41.83H32.59V37.21Z" fill="#13283F"/>
<path d="M46.45 37.21H41.83V41.83H46.45V37.21Z" fill="#13283F"/>
<path d="M55.69 37.21H51.07V41.83H55.69V37.21Z" fill="#13283F"/>
<path d="M60.31 37.21H55.69V41.83H60.31V37.21Z" fill="#13283F"/>
<path d="M69.55 37.21H64.93V41.83H69.55V37.21Z" fill="#13283F"/>
<path d="M74.17 37.21H69.55V41.83H74.17V37.21Z" fill="#13283F"/>
<path d="M78.79 37.21H74.17V41.83H78.79V37.21Z" fill="#13283F"/>
<path d="M83.41 37.21H78.79V41.83H83.41V37.21Z" fill="#13283F"/>
<path d="M88.03 37.21H83.41V41.83H88.03V37.21Z" fill="#13283F"/>
<path d="M106.51 37.21H101.89V41.83H106.51V37.21Z" fill="#13283F"/>
<path d="M115.75 37.21H111.13V41.83H115.75V37.21Z" fill="#13283F"/>
<path d="M9.49 41.83H4.87V46.45H9.49V41.83Z" fill="#13283F"/>
<path d="M14.11 41.83H9.49V46.45H14.11V41.83Z" fill="#13283F"/>
<path d="M18.73 41.83H14.11V46.45H18.73V41.83Z" fill="#13283F"/>
<path d="M23.35 41.83H18.73V46.45H23.35V41.83Z" fill="#13283F"/>
<path d="M41.83 41.83H37.21V46.45H41.83V41.83Z" fill="#13283F"/>
<path d="M51.07 41.83H46.45V46.45H51.07V41.83Z" fill="#13283F"/>
<path d="M64.93 41.83H60.31V46.45H64.93V41.83Z" fill="#13283F"/>
<path d="M69.55 41.83H64.93V46.45H69.55V41.83Z" fill="#13283F"/>
<path d="M74.17 41.83H69.55V46.45H74.17V41.83Z" fill="#13283F"/>
<path d="M78.79 41.83H74.17V46.45H78.79V41.83Z" fill="#13283F"/>
<path d="M97.27 41.83H92.65V46.45H97.27V41.83Z" fill="#13283F"/>
<path d="M101.89 41.83H97.27V46.45H101.89V41.83Z" fill="#13283F"/>
<path d="M115.75 41.83H111.13V46.45H115.75V41.83Z" fill="#13283F"/>
<path d="M4.87 46.45H0.25V51.07H4.87V46.45Z" fill="#13283F"/>
<path d="M14.11 46.45H9.49V51.07H14.11V46.45Z" fill="#13283F"/>
<path d="M23.35 46.45H18.73V51.07H23.35V46.45Z" fill="#13283F"/>
<path d="M32.59 46.45H27.97V51.07H32.59V46.45Z" fill="#13283F"/>
<path d="M41.83 46.45H37.21V51.07H41.83V46.45Z" fill="#13283F"/>
<path d="M46.45 46.45H41.83V51.07H46.45V46.45Z" fill="#13283F"/>
<path d="M55.69 46.45H51.07V51.07H55.69V46.45Z" fill="#13283F"/>
<path d="M60.31 46.45H55.69V51.07H60.31V46.45Z" fill="#13283F"/>
<path d="M64.93 46.45H60.31V51.07H64.93V46.45Z" fill="#13283F"/>
<path d="M74.17 46.45H69.55L69.55 51.07H74.17V46.45Z" fill="#13283F"/>
<path d="M78.79 46.45H74.17V51.07H78.79V46.45Z" fill="#13283F"/>
<path d="M92.65 46.45H88.03V51.07H92.65V46.45Z" fill="#13283F"/>
<path d="M97.27 46.45H92.65V51.07H97.27V46.45Z" fill="#13283F"/>
<path d="M101.89 46.45H97.27V51.07H101.89V46.45Z" fill="#13283F"/>
<path d="M106.51 46.45H101.89V51.07H106.51V46.45Z" fill="#13283F"/>
<path d="M4.87 51.07H0.25V55.69H4.87V51.07Z" fill="#13283F"/>
<path d="M14.11 51.07H9.49V55.69H14.11V51.07Z" fill="#13283F"/>
<path d="M41.83 51.07H37.21V55.69H41.83V51.07Z" fill="#13283F"/>
<path d="M46.45 51.07H41.83V55.69H46.45V51.07Z" fill="#13283F"/>
<path d="M55.69 51.07H51.07V55.69H55.69V51.07Z" fill="#13283F"/>
<path d="M69.55 51.07H64.93V55.69H69.55L69.55 51.07Z" fill="#13283F"/>
<path d="M78.79 51.07H74.17V55.69H78.79V51.07Z" fill="#13283F"/>
<path d="M92.65 51.07H88.03V55.69H92.65V51.07Z" fill="#13283F"/>
<path d="M106.51 51.07H101.89V55.69H106.51V51.07Z" fill="#13283F"/>
<path d="M115.75 51.07H111.13V55.69H115.75V51.07Z" fill="#13283F"/>
<path d="M9.49 55.69H4.87V60.31H9.49V55.69Z" fill="#13283F"/>
<path d="M14.11 55.69H9.49V60.31H14.11V55.69Z" fill="#13283F"/>
<path d="M18.73 55.69H14.11V60.31H18.73V55.69Z" fill="#13283F"/>
<path d="M32.59 55.69H27.97V60.31H32.59V55.69Z" fill="#13283F"/>
<path d="M46.45 55.69H41.83V60.31H46.45V55.69Z" fill="#13283F"/>
<path d="M51.07 55.69H46.45V60.31H51.07V55.69Z" fill="#13283F"/>
<path d="M55.69 55.69H51.07V60.31H55.69V55.69Z" fill="#13283F"/>
<path d="M78.79 55.69H74.17V60.31H78.79V55.69Z" fill="#13283F"/>
<path d="M83.41 55.69H78.79V60.31H83.41V55.69Z" fill="#13283F"/>
<path d="M88.03 55.69H83.41V60.31H88.03V55.69Z" fill="#13283F"/>
<path d="M92.65 55.69H88.03V60.31H92.65V55.69Z" fill="#13283F"/>
<path d="M115.75 55.69H111.13V60.31H115.75V55.69Z" fill="#13283F"/>
<path d="M4.87 60.31H0.25V64.93H4.87V60.31Z" fill="#13283F"/>
<path d="M14.11 60.31H9.49V64.93H14.11V60.31Z" fill="#13283F"/>
<path d="M27.97 60.31H23.35V64.93H27.97L27.97 60.31Z" fill="#13283F"/>
<path d="M37.21 60.31H32.59V64.93H37.21V60.31Z" fill="#13283F"/>
<path d="M41.83 60.31H37.21V64.93H41.83V60.31Z" fill="#13283F"/>
<path d="M51.07 60.31H46.45V64.93H51.07V60.31Z" fill="#13283F"/>
<path d="M60.31 60.31H55.69V64.93H60.31V60.31Z" fill="#13283F"/>
<path d="M64.93 60.31H60.31V64.93H64.93V60.31Z" fill="#13283F"/>
<path d="M74.17 60.31H69.55V64.93H74.17V60.31Z" fill="#13283F"/>
<path d="M78.79 60.31H74.17V64.93H78.79V60.31Z" fill="#13283F"/>
<path d="M88.03 60.31H83.41V64.93H88.03V60.31Z" fill="#13283F"/>
<path d="M97.27 60.31H92.65V64.93H97.27V60.31Z" fill="#13283F"/>
<path d="M101.89 60.31H97.27V64.93H101.89V60.31Z" fill="#13283F"/>
<path d="M111.13 60.31H106.51V64.93H111.13V60.31Z" fill="#13283F"/>
<path d="M115.75 60.31H111.13V64.93H115.75V60.31Z" fill="#13283F"/>
<path d="M4.87 64.93H0.25V69.55H4.87V64.93Z" fill="#13283F"/>
<path d="M27.97 64.93H23.35V69.55H27.97V64.93Z" fill="#13283F"/>
<path d="M32.59 64.93H27.97V69.55H32.59V64.93Z" fill="#13283F"/>
<path d="M51.07 64.93H46.45V69.55H51.07V64.93Z" fill="#13283F"/>
<path d="M55.69 64.93H51.07V69.55H55.69V64.93Z" fill="#13283F"/>
<path d="M60.31 64.93H55.69V69.55H60.31V64.93Z" fill="#13283F"/>
<path d="M64.93 64.93H60.31V69.55H64.93V64.93Z" fill="#13283F"/>
<path d="M88.03 64.93H83.41V69.55H88.03V64.93Z" fill="#13283F"/>
<path d="M92.65 64.93H88.03V69.55H92.65V64.93Z" fill="#13283F"/>
<path d="M97.27 64.93H92.65V69.55H97.27V64.93Z" fill="#13283F"/>
<path d="M101.89 64.93H97.27V69.55H101.89V64.93Z" fill="#13283F"/>
<path d="M4.87 69.55H0.25V74.17H4.87V69.55Z" fill="#13283F"/>
<path d="M9.49 69.55L4.87 69.55V74.17H9.49V69.55Z" fill="#13283F"/>
<path d="M18.73 69.55H14.11V74.17H18.73V69.55Z" fill="#13283F"/>
<path d="M23.35 69.55L18.73 69.55V74.17H23.35V69.55Z" fill="#13283F"/>
<path d="M41.83 69.55H37.21V74.17H41.83V69.55Z" fill="#13283F"/>
<path d="M55.69 69.55H51.07V74.17H55.69V69.55Z" fill="#13283F"/>
<path d="M69.55 69.55L64.93 69.55V74.17H69.55V69.55Z" fill="#13283F"/>
<path d="M78.79 69.55H74.17V74.17H78.79V69.55Z" fill="#13283F"/>
<path d="M88.03 69.55H83.41V74.17H88.03V69.55Z" fill="#13283F"/>
<path d="M92.65 69.55H88.03V74.17H92.65V69.55Z" fill="#13283F"/>
<path d="M115.75 69.55H111.13V74.17H115.75V69.55Z" fill="#13283F"/>
<path d="M18.73 74.17H14.11V78.79H18.73V74.17Z" fill="#13283F"/>
<path d="M23.35 74.17H18.73V78.79H23.35V74.17Z" fill="#13283F"/>
<path d="M27.97 74.17H23.35V78.79H27.97V74.17Z" fill="#13283F"/>
<path d="M32.59 74.17H27.97V78.79H32.59V74.17Z" fill="#13283F"/>
<path d="M41.83 74.17H37.21V78.79H41.83V74.17Z" fill="#13283F"/>
<path d="M46.45 74.17H41.83V78.79H46.45V74.17Z" fill="#13283F"/>
<path d="M51.07 74.17H46.45V78.79H51.07V74.17Z" fill="#13283F"/>
<path d="M55.69 74.17H51.07V78.79H55.69V74.17Z" fill="#13283F"/>
<path d="M78.79 74.17H74.17V78.79H78.79V74.17Z" fill="#13283F"/>
<path d="M83.41 74.17H78.79V78.79H83.41V74.17Z" fill="#13283F"/>
<path d="M88.03 74.17H83.41V78.79H88.03V74.17Z" fill="#13283F"/>
<path d="M92.65 74.17H88.03V78.79H92.65V74.17Z" fill="#13283F"/>
<path d="M97.27 74.17H92.65V78.79H97.27V74.17Z" fill="#13283F"/>
<path d="M101.89 74.17H97.27V78.79H101.89V74.17Z" fill="#13283F"/>
<path d="M115.75 74.17H111.13V78.79H115.75V74.17Z" fill="#13283F"/>
<path d="M74.17 78.79H69.55V83.41H74.17V78.79Z" fill="#13283F"/>
<path d="M78.79 78.79H74.17V83.41H78.79V78.79Z" fill="#13283F"/>
<path d="M97.27 78.79H92.65V83.41H97.27V78.79Z" fill="#13283F"/>
<path d="M101.89 78.79H97.27V83.41H101.89V78.79Z" fill="#13283F"/>
<path d="M111.13 78.79H106.51V83.41H111.13V78.79Z" fill="#13283F"/>
<path d="M115.75 78.79H111.13V83.41H115.75V78.79Z" fill="#13283F"/>
<path d="M4.87 83.41H0.25V88.03H4.87V83.41Z" fill="#13283F"/>
<path d="M9.49 83.41H4.87V88.03H9.49V83.41Z" fill="#13283F"/>
<path d="M14.11 83.41H9.49V88.03H14.11V83.41Z" fill="#13283F"/>
<path d="M18.73 83.41H14.11V88.03H18.73V83.41Z" fill="#13283F"/>
<path d="M23.35 83.41H18.73V88.03H23.35V83.41Z" fill="#13283F"/>
<path d="M27.97 83.41H23.35V88.03H27.97V83.41Z" fill="#13283F"/>
<path d="M32.59 83.41H27.97V88.03H32.59V83.41Z" fill="#13283F"/>
<path d="M46.45 83.41H41.83V88.03H46.45V83.41Z" fill="#13283F"/>
<path d="M60.31 83.41H55.69V88.03H60.31V83.41Z" fill="#13283F"/>
<path d="M64.93 83.41H60.31V88.03H64.93V83.41Z" fill="#13283F"/>
<path d="M69.55 83.41H64.93V88.03H69.55L69.55 83.41Z" fill="#13283F"/>
<path d="M78.79 83.41H74.17V88.03H78.79V83.41Z" fill="#13283F"/>
<path d="M88.03 83.41H83.41V88.03H88.03V83.41Z" fill="#13283F"/>
<path d="M97.27 83.41H92.65V88.03H97.27V83.41Z" fill="#13283F"/>
<path d="M115.75 83.41H111.13V88.03H115.75V83.41Z" fill="#13283F"/>
<path d="M4.87 88.03H0.25V92.65H4.87V88.03Z" fill="#13283F"/>
<path d="M32.59 88.03H27.97L27.97 92.65H32.59V88.03Z" fill="#13283F"/>
<path d="M41.83 88.03H37.21V92.65H41.83V88.03Z" fill="#13283F"/>
<path d="M46.45 88.03H41.83V92.65H46.45V88.03Z" fill="#13283F"/>
<path d="M51.07 88.03H46.45V92.65H51.07V88.03Z" fill="#13283F"/>
<path d="M55.69 88.03H51.07V92.65H55.69V88.03Z" fill="#13283F"/>
<path d="M60.31 88.03H55.69V92.65H60.31V88.03Z" fill="#13283F"/>
<path d="M64.93 88.03H60.31V92.65H64.93V88.03Z" fill="#13283F"/>
<path d="M78.79 88.03H74.17V92.65H78.79V88.03Z" fill="#13283F"/>
<path d="M97.27 88.03H92.65V92.65H97.27V88.03Z" fill="#13283F"/>
<path d="M111.13 88.03H106.51V92.65H111.13V88.03Z" fill="#13283F"/>
<path d="M4.87 92.65H0.25V97.27H4.87V92.65Z" fill="#13283F"/>
<path d="M14.11 92.65H9.49V97.27H14.11V92.65Z" fill="#13283F"/>
<path d="M18.73 92.65H14.11V97.27H18.73V92.65Z" fill="#13283F"/>
<path d="M23.35 92.65H18.73V97.27H23.35V92.65Z" fill="#13283F"/>
<path d="M32.59 92.65H27.97V97.27H32.59V92.65Z" fill="#13283F"/>
<path d="M51.07 92.65H46.45V97.27H51.07V92.65Z" fill="#13283F"/>
<path d="M55.69 92.65H51.07V97.27H55.69V92.65Z" fill="#13283F"/>
<path d="M69.55 92.65H64.93V97.27H69.55V92.65Z" fill="#13283F"/>
<path d="M78.79 92.65H74.17V97.27H78.79V92.65Z" fill="#13283F"/>
<path d="M83.41 92.65H78.79V97.27H83.41V92.65Z" fill="#13283F"/>
<path d="M88.03 92.65H83.41V97.27H88.03V92.65Z" fill="#13283F"/>
<path d="M92.65 92.65H88.03V97.27H92.65V92.65Z" fill="#13283F"/>
<path d="M97.27 92.65H92.65V97.27H97.27V92.65Z" fill="#13283F"/>
<path d="M101.89 92.65H97.27V97.27H101.89V92.65Z" fill="#13283F"/>
<path d="M106.51 92.65H101.89V97.27H106.51V92.65Z" fill="#13283F"/>
<path d="M111.13 92.65H106.51V97.27H111.13V92.65Z" fill="#13283F"/>
<path d="M115.75 92.65H111.13V97.27H115.75V92.65Z" fill="#13283F"/>
<path d="M4.87 97.27H0.25V101.89H4.87V97.27Z" fill="#13283F"/>
<path d="M14.11 97.27H9.49V101.89H14.11V97.27Z" fill="#13283F"/>
<path d="M18.73 97.27H14.11V101.89H18.73V97.27Z" fill="#13283F"/>
<path d="M23.35 97.27H18.73V101.89H23.35V97.27Z" fill="#13283F"/>
<path d="M32.59 97.27H27.97V101.89H32.59V97.27Z" fill="#13283F"/>
<path d="M46.45 97.27H41.83V101.89H46.45V97.27Z" fill="#13283F"/>
<path d="M55.69 97.27H51.07V101.89H55.69V97.27Z" fill="#13283F"/>
<path d="M69.55 97.27H64.93V101.89H69.55V97.27Z" fill="#13283F"/>
<path d="M74.17 97.27H69.55V101.89H74.17V97.27Z" fill="#13283F"/>
<path d="M78.79 97.27H74.17V101.89H78.79V97.27Z" fill="#13283F"/>
<path d="M83.41 97.27H78.79V101.89H83.41V97.27Z" fill="#13283F"/>
<path d="M97.27 97.27H92.65V101.89H97.27V97.27Z" fill="#13283F"/>
<path d="M106.51 97.27H101.89V101.89H106.51V97.27Z" fill="#13283F"/>
<path d="M111.13 97.27H106.51V101.89H111.13V97.27Z" fill="#13283F"/>
<path d="M4.87 101.89H0.25V106.51H4.87V101.89Z" fill="#13283F"/>
<path d="M14.11 101.89H9.49V106.51H14.11V101.89Z" fill="#13283F"/>
<path d="M18.73 101.89H14.11V106.51H18.73V101.89Z" fill="#13283F"/>
<path d="M23.35 101.89H18.73V106.51H23.35V101.89Z" fill="#13283F"/>
<path d="M32.59 101.89H27.97V106.51H32.59V101.89Z" fill="#13283F"/>
<path d="M41.83 101.89H37.21V106.51H41.83V101.89Z" fill="#13283F"/>
<path d="M46.45 101.89H41.83V106.51H46.45V101.89Z" fill="#13283F"/>
<path d="M83.41 101.89H78.79V106.51H83.41V101.89Z" fill="#13283F"/>
<path d="M106.51 101.89H101.89V106.51H106.51V101.89Z" fill="#13283F"/>
<path d="M4.87 106.51H0.25V111.13H4.87V106.51Z" fill="#13283F"/>
<path d="M32.59 106.51H27.97V111.13H32.59V106.51Z" fill="#13283F"/>
<path d="M60.31 106.51H55.69V111.13H60.31V106.51Z" fill="#13283F"/>
<path d="M106.51 106.51H101.89V111.13H106.51V106.51Z" fill="#13283F"/>
<path d="M4.87 111.13H0.25V115.75H4.87V111.13Z" fill="#13283F"/>
<path d="M9.49 111.13H4.87V115.75H9.49V111.13Z" fill="#13283F"/>
<path d="M14.11 111.13H9.49V115.75H14.11V111.13Z" fill="#13283F"/>
<path d="M18.73 111.13H14.11V115.75H18.73V111.13Z" fill="#13283F"/>
<path d="M23.35 111.13H18.73V115.75H23.35V111.13Z" fill="#13283F"/>
<path d="M27.97 111.13H23.35V115.75H27.97L27.97 111.13Z" fill="#13283F"/>
<path d="M32.59 111.13H27.97L27.97 115.75H32.59V111.13Z" fill="#13283F"/>
<path d="M41.83 111.13H37.21V115.75H41.83V111.13Z" fill="#13283F"/>
<path d="M46.45 111.13H41.83V115.75H46.45V111.13Z" fill="#13283F"/>
<path d="M51.07 111.13H46.45V115.75H51.07V111.13Z" fill="#13283F"/>
<path d="M64.93 111.13H60.31V115.75H64.93V111.13Z" fill="#13283F"/>
<path d="M69.55 111.13H64.93V115.75H69.55V111.13Z" fill="#13283F"/>
<path d="M78.79 111.13H74.17V115.75H78.79V111.13Z" fill="#13283F"/>
<path d="M88.03 111.13H83.41V115.75H88.03V111.13Z" fill="#13283F"/>
<path d="M106.51 111.13H101.89V115.75H106.51V111.13Z" fill="#13283F"/>
<path d="M115.75 111.13H111.13V115.75H115.75V111.13Z" fill="#13283F"/>
<path d="M31.4142 83.3466C30.6332 82.5656 30.6332 81.2993 31.4142 80.5182L80.1899 31.7426C80.9709 30.9615 82.2372 30.9615 83.0183 31.7426V31.7426C83.7993 32.5236 83.7993 33.7899 83.0183 34.571L34.2426 83.3467C33.4616 84.1277 32.1953 84.1277 31.4142 83.3466V83.3466Z" fill="#FA6464"/>
<path d="M86.2479 81.5525C85.5207 82.3839 84.2572 82.4684 83.4258 81.7411L31.5053 36.3275C30.6739 35.6003 30.5894 34.3368 31.3166 33.5054V33.5054C32.0439 32.674 33.3074 32.5895 34.1388 33.3167L86.0592 78.7304C86.8906 79.4576 86.9751 80.7211 86.2479 81.5525V81.5525Z" fill="#FA6464"/>
</svg>
