<svg width="16" height="16" viewBox="0 0 16 16" fill="none" xmlns="http://www.w3.org/2000/svg">
<rect width="16" height="16" rx="2" fill="#D2DFEA"/>
<path d="M12.1141 7.53866C12.3248 7.81422 12.3248 8.18622 12.1141 8.46133C11.4506 9.32755 9.85856 11.1111 7.9999 11.1111C6.14123 11.1111 4.54923 9.32755 3.88567 8.46133C3.78318 8.32939 3.72754 8.16707 3.72754 8C3.72754 7.83292 3.78318 7.6706 3.88567 7.53866C4.54923 6.67244 6.14123 4.88889 7.9999 4.88889C9.85856 4.88889 11.4506 6.67244 12.1141 7.53866V7.53866Z" stroke="#13283F" stroke-linecap="round" stroke-linejoin="round"/>
<path d="M7.99984 9.33332C8.73622 9.33332 9.33317 8.73637 9.33317 7.99999C9.33317 7.26361 8.73622 6.66666 7.99984 6.66666C7.26346 6.66666 6.6665 7.26361 6.6665 7.99999C6.6665 8.73637 7.26346 9.33332 7.99984 9.33332Z" stroke="#13283F" stroke-linecap="round" stroke-linejoin="round"/>
</svg>
