<svg width="21" height="21" viewBox="0 0 21 21" fill="none" xmlns="http://www.w3.org/2000/svg">
<rect width="20.3062" height="20.3062" rx="1.69219" fill="#D2DFEA"/>
<path d="M5.50002 4.5C5.50002 4.36739 5.44734 4.24021 5.35357 4.14645C5.25981 4.05268 5.13263 4 5.00002 4C4.86741 4 4.74024 4.05268 4.64647 4.14645C4.5527 4.24021 4.50002 4.36739 4.50002 4.5V13.293L3.35402 12.146C3.26013 12.0521 3.1328 11.9994 3.00002 11.9994C2.86725 11.9994 2.73991 12.0521 2.64602 12.146C2.55213 12.2399 2.49939 12.3672 2.49939 12.5C2.49939 12.6328 2.55213 12.7601 2.64602 12.854L4.64602 14.853L4.65302 14.86C4.7469 14.9515 4.87314 15.0023 5.00426 15.0011C5.13537 15 5.26073 14.9471 5.35302 14.854L7.35302 12.854C7.39951 12.8076 7.4364 12.7525 7.46158 12.6918C7.48677 12.6311 7.49975 12.5661 7.4998 12.5004C7.49985 12.4347 7.48695 12.3696 7.46185 12.3089C7.43675 12.2482 7.39994 12.193 7.35352 12.1465C7.3071 12.1 7.25197 12.0631 7.1913 12.0379C7.13062 12.0128 7.06557 11.9998 6.99988 11.9997C6.93418 11.9997 6.86911 12.0126 6.8084 12.0377C6.74769 12.0628 6.69251 12.0996 6.64602 12.146L5.50002 13.293V4.5ZM9.00002 5.5C9.00002 5.36739 9.0527 5.24021 9.14647 5.14645C9.24024 5.05268 9.36741 5 9.50002 5H16.5C16.6326 5 16.7598 5.05268 16.8536 5.14645C16.9473 5.24021 17 5.36739 17 5.5C17 5.63261 16.9473 5.75979 16.8536 5.85355C16.7598 5.94732 16.6326 6 16.5 6H9.50002C9.36741 6 9.24024 5.94732 9.14647 5.85355C9.0527 5.75979 9.00002 5.63261 9.00002 5.5ZM9.50002 8C9.36741 8 9.24024 8.05268 9.14647 8.14645C9.0527 8.24021 9.00002 8.36739 9.00002 8.5C9.00002 8.63261 9.0527 8.75979 9.14647 8.85355C9.24024 8.94732 9.36741 9 9.50002 9H14.5C14.6326 9 14.7598 8.94732 14.8536 8.85355C14.9473 8.75979 15 8.63261 15 8.5C15 8.36739 14.9473 8.24021 14.8536 8.14645C14.7598 8.05268 14.6326 8 14.5 8H9.50002ZM9.50002 11C9.36741 11 9.24024 11.0527 9.14647 11.1464C9.0527 11.2402 9.00002 11.3674 9.00002 11.5C9.00002 11.6326 9.0527 11.7598 9.14647 11.8536C9.24024 11.9473 9.36741 12 9.50002 12H12.5C12.6326 12 12.7598 11.9473 12.8536 11.8536C12.9473 11.7598 13 11.6326 13 11.5C13 11.3674 12.9473 11.2402 12.8536 11.1464C12.7598 11.0527 12.6326 11 12.5 11H9.50002ZM9.50002 14C9.36741 14 9.24024 14.0527 9.14647 14.1464C9.0527 14.2402 9.00002 14.3674 9.00002 14.5C9.00002 14.6326 9.0527 14.7598 9.14647 14.8536C9.24024 14.9473 9.36741 15 9.50002 15H10.5C10.6326 15 10.7598 14.9473 10.8536 14.8536C10.9473 14.7598 11 14.6326 11 14.5C11 14.3674 10.9473 14.2402 10.8536 14.1464C10.7598 14.0527 10.6326 14 10.5 14H9.50002Z" fill="#13283F"/>
</svg>
