<svg width="70" height="60" viewBox="0 0 70 60" fill="none" xmlns="http://www.w3.org/2000/svg">
<path d="M68.3333 41.6667C68.3333 50.8717 60.8717 58.3333 51.6667 58.3333C48.6833 58.3333 45.88 57.55 43.4567 56.175C40.8902 54.7203 38.7554 52.6111 37.2698 50.0624C35.7842 47.5137 35.001 44.6167 35 41.6667C35 37.3867 36.6133 33.4833 39.2633 30.5333C40.8248 28.7899 42.7368 27.3958 44.8742 26.4423C47.0116 25.4888 49.3262 24.9973 51.6667 25C60.8717 25 68.3333 32.4617 68.3333 41.6667Z" stroke="#FA6464" stroke-width="2" stroke-linecap="round" stroke-linejoin="round"/>
<path d="M51.667 10V25C49.3265 24.9973 47.0119 25.4888 44.8745 26.4423C42.7371 27.3958 40.8251 28.7899 39.2637 30.5333C36.5134 33.5888 34.9943 37.5558 35.0003 41.6667C35.0013 44.6167 35.7845 47.5137 37.2701 50.0624C38.7557 52.6111 40.8905 54.7203 43.457 56.175C39.0203 57.5167 33.1303 58.3333 26.667 58.3333C12.8603 58.3333 1.66699 54.6017 1.66699 50V10" stroke="#FA6464" stroke-width="2" stroke-linecap="round" stroke-linejoin="round"/>
<path d="M51.667 10C51.667 14.6017 40.4737 18.3333 26.667 18.3333C12.8603 18.3333 1.66699 14.6017 1.66699 10C1.66699 5.39834 12.8603 1.66667 26.667 1.66667C40.4737 1.66667 51.667 5.39834 51.667 10Z" stroke="#FA6464" stroke-width="2" stroke-linecap="round" stroke-linejoin="round"/>
<path d="M1.66699 36.6667C1.66699 41.2683 12.8603 45 26.667 45C29.6787 45 32.567 44.8233 35.2403 44.4967" stroke="#FA6464" stroke-width="2" stroke-linecap="round" stroke-linejoin="round"/>
<path d="M1.66699 23.3333C1.66699 27.935 12.8603 31.6667 26.667 31.6667C31.2603 31.6667 35.5653 31.2533 39.2637 30.5333" stroke="#FA6464" stroke-width="2" stroke-linecap="round" stroke-linejoin="round"/>
<path d="M59.1667 38.3333L50 47.5L45 42.5" stroke="#FA6464" stroke-width="2" stroke-linecap="round" stroke-linejoin="round"/>
</svg>
