<svg width="16" height="16" viewBox="0 0 16 16" fill="none" xmlns="http://www.w3.org/2000/svg">
<path d="M11.3333 5.33331V4.66665C11.3333 2.82865 9.83796 1.33331 7.99996 1.33331C6.16196 1.33331 4.66663 2.82865 4.66663 4.66665V6.66665H3.99996C3.26463 6.66665 2.66663 7.26465 2.66663 7.99998V13.3333C2.66663 14.0686 3.26463 14.6666 3.99996 14.6666H12C12.7353 14.6666 13.3333 14.0686 13.3333 13.3333V7.99998C13.3333 7.26465 12.7353 6.66665 12 6.66665H5.99996V4.66665C5.99996 3.56398 6.89729 2.66665 7.99996 2.66665C9.10263 2.66665 9.99996 3.56398 9.99996 4.66665V5.33331H11.3333ZM12 7.99998L12.0013 13.3333H3.99996V7.99998H12Z" fill="#13283F"/>
</svg>
