<svg width="16" height="16" viewBox="0 0 16 16" fill="none" xmlns="http://www.w3.org/2000/svg">
<path d="M8.33333 1C6.49533 1 5 2.49533 5 4.33333V5.66667H4.33333C3.598 5.66667 3 6.26467 3 7V13C3 13.7353 3.598 14.3333 4.33333 14.3333H12.3333C13.0687 14.3333 13.6667 13.7353 13.6667 13V7C13.6667 6.26467 13.0687 5.66667 12.3333 5.66667H11.6667V4.33333C11.6667 2.49533 10.1713 1 8.33333 1ZM6.33333 4.33333C6.33333 3.23067 7.23067 2.33333 8.33333 2.33333C9.436 2.33333 10.3333 3.23067 10.3333 4.33333V5.66667H6.33333V4.33333ZM12.3347 13H9V11.4813C9.39667 11.25 9.66667 10.8247 9.66667 10.3333C9.66667 9.598 9.06867 9 8.33333 9C7.598 9 7 9.598 7 10.3333C7 10.824 7.27 11.25 7.66667 11.4813V13H4.33333V7H12.3333L12.3347 13Z" fill="#13283F"/>
</svg>
