<svg width="21" height="21" viewBox="0 0 21 21" fill="none" xmlns="http://www.w3.org/2000/svg">
<rect width="20.3062" height="20.3062" rx="1.69219" fill="#D2DFEA"/>
<path d="M8.66663 9.99999C8.66663 10.3536 8.8071 10.6927 9.05715 10.9428C9.3072 11.1928 9.64634 11.3333 9.99996 11.3333C10.3536 11.3333 10.6927 11.1928 10.9428 10.9428C11.1928 10.6927 11.3333 10.3536 11.3333 9.99999C11.3333 9.64637 11.1928 9.30723 10.9428 9.05718C10.6927 8.80713 10.3536 8.66666 9.99996 8.66666C9.64634 8.66666 9.3072 8.80713 9.05715 9.05718C8.8071 9.30723 8.66663 9.64637 8.66663 9.99999ZM8.66663 5.99999C8.66663 6.35361 8.8071 6.69275 9.05715 6.9428C9.3072 7.19285 9.64634 7.33332 9.99996 7.33332C10.3536 7.33332 10.6927 7.19285 10.9428 6.9428C11.1928 6.69275 11.3333 6.35361 11.3333 5.99999C11.3333 5.64637 11.1928 5.30723 10.9428 5.05718C10.6927 4.80713 10.3536 4.66666 9.99996 4.66666C9.64634 4.66666 9.3072 4.80713 9.05715 5.05718C8.8071 5.30723 8.66663 5.64637 8.66663 5.99999ZM8.66663 14C8.66663 14.3536 8.8071 14.6927 9.05715 14.9428C9.3072 15.1928 9.64634 15.3333 9.99996 15.3333C10.3536 15.3333 10.6927 15.1928 10.9428 14.9428C11.1928 14.6927 11.3333 14.3536 11.3333 14C11.3333 13.6464 11.1928 13.3072 10.9428 13.0572C10.6927 12.8071 10.3536 12.6667 9.99996 12.6667C9.64634 12.6667 9.3072 12.8071 9.05715 13.0572C8.8071 13.3072 8.66663 13.6464 8.66663 14Z" fill="#13283F"/>
</svg>
