<svg width="16" height="16" viewBox="0 0 16 16" fill="none" xmlns="http://www.w3.org/2000/svg">
<path d="M2 10V11H4.293L1 14.293L1.707 15L5 11.707V14H6V10H2Z" fill="#a0a9b2"/>
<path d="M12 10.5H13V13H12V10.5Z" fill="#a0a9b2"/>
<path d="M10 8H11V13H10V8Z" fill="#a0a9b2"/>
<path d="M8 9H9V13H8V9Z" fill="#a0a9b2"/>
<path d="M14 1H2C1.73486 1.00026 1.48066 1.10571 1.29319 1.29319C1.10571 1.48066 1.00026 1.73486 1 2V8H2V6.5H14.0005L14.001 14H8V15H14C14.2651 14.9996 14.5192 14.8941 14.7067 14.7067C14.8941 14.5192 14.9996 14.2651 15 14V2C14.9997 1.73486 14.8943 1.48066 14.7068 1.29319C14.5193 1.10571 14.2651 1.00026 14 1ZM6 5.5H2V2H6V5.5ZM7 5.5V2H14V5.5H7Z" fill="#a0a9b2"/>
</svg>
