<svg width="16" height="16" viewBox="0 0 16 16" fill="none" xmlns="http://www.w3.org/2000/svg">
<path d="M8.938 3.9143L8.108 3.1851V4.28993V9.56119C8.108 9.61243 8.06492 9.66271 8 9.66271C7.96996 9.66271 7.95022 9.65216 7.93617 9.63774C7.92117 9.62233 7.908 9.59715 7.908 9.56119V4.28993V3.19089L7.07948 3.913L5.06348 5.67009L5.05807 5.6748L5.05279 5.67967C5.03599 5.69519 5.01329 5.70324 4.99 5.70203C4.968 5.70088 4.9548 5.69243 4.94639 5.6822L4.93549 5.66892L4.9237 5.65642C4.89624 5.62731 4.89294 5.57521 4.93525 5.53859L4.93526 5.53859L4.93794 5.53624L7.92994 2.90852L7.93002 2.90862L7.93826 2.90105C7.9559 2.88485 7.97648 2.87682 8.00096 2.87648C8.01303 2.87631 8.02645 2.8781 8.04045 2.88252L8.07005 2.90852L11.0621 5.53624L11.062 5.53625L11.0647 5.53859C11.0867 5.55762 11.0974 5.58126 11.0991 5.60685C11.1008 5.63389 11.0921 5.65566 11.0806 5.66926C11.0417 5.71212 10.9804 5.71034 10.9472 5.67967L10.9473 5.67956L10.938 5.67139L8.938 3.9143ZM3.372 11.9989V12.4989H3.872H12.128H12.628V11.9989V11.1441C12.628 11.1195 12.6364 11.1024 12.651 11.0885C12.6669 11.0734 12.6949 11.0585 12.736 11.0585C12.7754 11.0585 12.7961 11.072 12.8063 11.0821C12.8164 11.092 12.828 11.11 12.828 11.1441V12.6005C12.828 12.6447 12.7921 12.6862 12.736 12.6862H3.264C3.24588 12.6862 3.22155 12.6783 3.19965 12.6566C3.17775 12.6349 3.172 12.6133 3.172 12.6005V11.1441C3.172 11.119 3.18092 11.1003 3.19632 11.0854C3.21316 11.069 3.23703 11.0585 3.264 11.0585C3.30509 11.0585 3.3331 11.0734 3.34898 11.0885C3.36355 11.1024 3.372 11.1195 3.372 11.1441V11.9989Z" fill="#13283F" stroke="#13283F"/>
</svg>
