<svg width="16" height="16" viewBox="0 0 16 16" fill="none" xmlns="http://www.w3.org/2000/svg">
<path d="M13.5 8.38V8V7.615L14.46 6.775C14.637 6.61902 14.7531 6.40551 14.7879 6.1722C14.8226 5.93888 14.7738 5.70079 14.65 5.5L13.47 3.5C13.3823 3.34813 13.2562 3.22199 13.1044 3.13423C12.9526 3.04647 12.7804 3.00018 12.605 3C12.4963 2.99916 12.3882 3.01605 12.285 3.05L11.07 3.46C10.8602 3.3206 10.6414 3.19532 10.415 3.085L10.16 1.825C10.1143 1.5948 9.98905 1.38802 9.80623 1.24085C9.62341 1.09368 9.39466 1.0155 9.16 1.02H6.82C6.58535 1.0155 6.3566 1.09368 6.17378 1.24085C5.99096 1.38802 5.86573 1.5948 5.82 1.825L5.565 3.085C5.33697 3.1953 5.11649 3.32057 4.905 3.46L3.715 3.03C3.61065 3.00281 3.50259 2.99268 3.395 3C3.21964 3.00018 3.04741 3.04647 2.89559 3.13423C2.74376 3.22199 2.61769 3.34813 2.53 3.5L1.35 5.5C1.2333 5.70049 1.18993 5.93533 1.22733 6.16428C1.26473 6.39323 1.38057 6.60206 1.555 6.755L2.5 7.62V8.385L1.555 9.225C1.37564 9.379 1.25663 9.59156 1.2191 9.82497C1.18158 10.0584 1.22795 10.2975 1.35 10.5L2.53 12.5C2.61769 12.6519 2.74376 12.778 2.89559 12.8658C3.04741 12.9535 3.21964 12.9998 3.395 13C3.50368 13.0008 3.61176 12.9839 3.715 12.95L4.93 12.54C5.13977 12.6794 5.35859 12.8047 5.585 12.915L5.84 14.175C5.88573 14.4052 6.01096 14.612 6.19378 14.7591C6.3766 14.9063 6.60535 14.9845 6.84 14.98H9.2C9.43466 14.9845 9.66341 14.9063 9.84623 14.7591C10.029 14.612 10.1543 14.4052 10.2 14.175L10.455 12.915C10.683 12.8047 10.9035 12.6794 11.115 12.54L12.325 12.95C12.4282 12.9839 12.5363 13.0008 12.645 13C12.8204 12.9998 12.9926 12.9535 13.1444 12.8658C13.2962 12.778 13.4223 12.6519 13.51 12.5L14.65 10.5C14.7667 10.2995 14.8101 10.0647 14.7727 9.83572C14.7353 9.60676 14.6194 9.39793 14.445 9.245L13.5 8.38ZM12.605 12L10.89 11.42C10.4885 11.7601 10.0297 12.0259 9.535 12.205L9.18 14H6.82L6.465 12.225C5.97422 12.0408 5.51786 11.7754 5.115 11.44L3.395 12L2.215 10L3.575 8.8C3.48255 8.28243 3.48255 7.75257 3.575 7.235L2.215 6L3.395 4L5.11 4.58C5.51147 4.23994 5.97031 3.97412 6.465 3.795L6.82 2H9.18L9.535 3.775C10.0258 3.95921 10.4821 4.22457 10.885 4.56L12.605 4L13.785 6L12.425 7.2C12.5175 7.71757 12.5175 8.24743 12.425 8.765L13.785 10L12.605 12Z" fill="#a0a9b2"/>
<path d="M8 11C7.40666 11 6.82664 10.8241 6.33329 10.4944C5.83994 10.1648 5.45543 9.69623 5.22836 9.14805C5.0013 8.59987 4.94189 7.99667 5.05765 7.41473C5.1734 6.83279 5.45912 6.29824 5.87868 5.87868C6.29824 5.45912 6.83279 5.1734 7.41473 5.05765C7.99667 4.94189 8.59987 5.0013 9.14805 5.22836C9.69623 5.45543 10.1648 5.83994 10.4944 6.33329C10.8241 6.82664 11 7.40666 11 8C11.004 8.39508 10.9292 8.78699 10.7798 9.15278C10.6305 9.51857 10.4096 9.85088 10.1303 10.1303C9.85088 10.4096 9.51857 10.6305 9.15278 10.7798C8.78699 10.9292 8.39508 11.004 8 11ZM8 6C7.73567 5.99384 7.47284 6.04137 7.22741 6.1397C6.98197 6.23803 6.75904 6.38512 6.57208 6.57208C6.38512 6.75904 6.23803 6.98197 6.1397 7.22741C6.04137 7.47284 5.99384 7.73567 6 8C5.99384 8.26433 6.04137 8.52716 6.1397 8.77259C6.23803 9.01803 6.38512 9.24097 6.57208 9.42792C6.75904 9.61488 6.98197 9.76198 7.22741 9.86031C7.47284 9.95864 7.73567 10.0062 8 10C8.26433 10.0062 8.52716 9.95864 8.77259 9.86031C9.01803 9.76198 9.24097 9.61488 9.42793 9.42792C9.61488 9.24097 9.76198 9.01803 9.86031 8.77259C9.95864 8.52716 10.0062 8.26433 10 8C10.0062 7.73567 9.95864 7.47284 9.86031 7.22741C9.76198 6.98197 9.61488 6.75904 9.42793 6.57208C9.24097 6.38512 9.01803 6.23803 8.77259 6.1397C8.52716 6.04137 8.26433 5.99384 8 6Z" fill="#a0a9b2"/>
</svg>
