<svg width="16" height="16" viewBox="0 0 16 16" fill="none" xmlns="http://www.w3.org/2000/svg">
<g opacity="0.7">
<path d="M12.4508 2.98932C12.383 2.93292 12.3038 2.89286 12.2191 2.87208C12.1343 2.85131 12.046 2.85035 11.9608 2.86929C11.3375 3.00369 10.694 3.00541 10.07 2.87432C9.44602 2.74323 8.8547 2.48211 8.33248 2.10705C8.23483 2.03735 8.11882 2 7.99998 2C7.88114 2 7.76513 2.03735 7.66748 2.10705C7.14525 2.48211 6.55394 2.74323 5.92994 2.87432C5.30595 3.00541 4.66248 3.00369 4.03915 2.86929C3.95395 2.85035 3.8657 2.85131 3.78091 2.87208C3.69611 2.89286 3.61692 2.93292 3.54915 2.98932C3.48147 3.04581 3.42695 3.11718 3.3896 3.1982C3.35225 3.27921 3.33302 3.3678 3.33332 3.45747V7.92887C3.3328 8.78939 3.5321 9.63758 3.91463 10.4028C4.29716 11.1681 4.85184 11.8282 5.53248 12.3282L7.66165 13.8887C7.76044 13.9611 7.8787 14 7.99998 14C8.12126 14 8.23952 13.9611 8.33831 13.8887L10.4675 12.3282C11.1481 11.8282 11.7028 11.1681 12.0853 10.4028C12.4679 9.63758 12.6672 8.78939 12.6666 7.92887V3.45747C12.6669 3.3678 12.6477 3.27921 12.6104 3.1982C12.573 3.11718 12.5185 3.04581 12.4508 2.98932ZM11.5 7.92887C11.5004 8.59793 11.3456 9.25743 11.0483 9.85248C10.751 10.4475 10.3199 10.9609 9.79081 11.3499L7.99998 12.6644L6.20915 11.3499C5.68009 10.9609 5.24897 10.4475 4.95169 9.85248C4.6544 9.25743 4.49953 8.59793 4.49998 7.92887V4.14769C5.7229 4.25538 6.94767 3.96344 7.99998 3.31342C9.05229 3.96344 10.2771 4.25538 11.5 4.14769V7.92887ZM8.89831 6.55444L7.32915 8.17495L6.80998 7.63478C6.70014 7.52176 6.55116 7.45827 6.39581 7.45827C6.24047 7.45827 6.09149 7.52176 5.98165 7.63478C5.8718 7.74779 5.81009 7.90108 5.81009 8.06091C5.81009 8.22074 5.8718 8.37403 5.98165 8.48704L6.91498 9.44734C6.96921 9.5036 7.03373 9.54825 7.10481 9.57872C7.1759 9.60919 7.25214 9.62488 7.32915 9.62488C7.40615 9.62488 7.4824 9.60919 7.55348 9.57872C7.62457 9.54825 7.68909 9.5036 7.74331 9.44734L9.74998 7.4007C9.85982 7.28769 9.92153 7.1344 9.92153 6.97457C9.92153 6.81474 9.85982 6.66145 9.74998 6.54844C9.64013 6.43542 9.49115 6.37193 9.33581 6.37193C9.18047 6.37193 9.03149 6.43542 8.92165 6.54844L8.89831 6.55444Z" fill="#13283F"/>
</g>
</svg>
