<svg width="16" height="16" viewBox="0 0 16 16" fill="none" xmlns="http://www.w3.org/2000/svg">
<g clip-path="url(#clip0_1120_291)">
<path d="M9.336 6.8296C9.27262 6.82917 9.21165 6.85383 9.16638 6.89819C9.12112 6.94256 9.09524 7.00302 9.0944 7.0664V8.836C9.09524 8.89951 9.12123 8.9601 9.16667 9.00449C9.2121 9.04887 9.27328 9.07344 9.3368 9.0728H14.6672C14.7307 9.07344 14.7919 9.04887 14.8373 9.00449C14.8828 8.9601 14.9088 8.89951 14.9096 8.836V7.0664C14.9088 7.00288 14.8828 6.94229 14.8373 6.89791C14.7919 6.85352 14.7307 6.82896 14.6672 6.8296H9.3368H9.336ZM12.6048 1.2008C13.3424 1.236 13.8728 1.3816 14.2088 1.6904C14.5408 1.996 14.7112 2.4384 14.7448 3.024V4.7016C14.7431 4.84446 14.6848 4.98082 14.5826 5.08072C14.4805 5.18062 14.3429 5.23589 14.2 5.2344C14.1292 5.23524 14.0589 5.22213 13.9932 5.19581C13.9274 5.16949 13.8675 5.13048 13.8168 5.08101C13.7662 5.03153 13.7258 4.97256 13.6979 4.90746C13.67 4.84236 13.6552 4.77241 13.6544 4.7016L13.6552 3.0544C13.6376 2.7504 13.5648 2.5616 13.4608 2.4656C13.36 2.3728 13.0528 2.2896 12.5784 2.2656H2.1176C1.688 2.2816 1.4088 2.3632 1.2736 2.4792C1.1696 2.568 1.0912 2.8128 1.0904 3.236L1.088 12.652C1.128 13.0632 1.2184 13.3376 1.3344 13.4744C1.4224 13.5784 1.6952 13.6824 2.0968 13.7336H12.5896C13.0808 13.7432 13.3704 13.6696 13.468 13.5712C13.576 13.4616 13.6544 13.1736 13.6544 12.7024V11.0664C13.6544 10.7728 13.8984 10.5336 14.2 10.5336C14.5008 10.5336 14.7448 10.7728 14.7448 11.0664V12.7024C14.7448 13.4224 14.5976 13.9608 14.2528 14.3104C13.8976 14.6704 13.3328 14.8144 12.5784 14.7984L2.032 14.796C1.3144 14.7128 0.8 14.516 0.4936 14.1536C0.216 13.8256 0.0616 13.3576 0 12.7032V3.2352C0.0016 2.5344 0.1696 2.0072 0.5552 1.6776C0.9088 1.3736 1.4192 1.2256 2.0968 1.2H12.6048V1.2008ZM14.6672 5.764C15.4032 5.764 16 6.3472 16 7.0664V8.836C16 9.5552 15.4032 10.1384 14.6672 10.1384H9.3368C8.6008 10.1384 8.004 9.5544 8.004 8.836V7.0664C8.004 6.3472 8.6008 5.764 9.3368 5.764H14.6672ZM10.6696 7.316C10.3016 7.316 10.0032 7.604 10.0032 7.9584C10.0032 8.3136 10.3016 8.6008 10.6696 8.6008C11.0376 8.6008 11.336 8.3128 11.336 7.9584C11.336 7.6032 11.0376 7.3152 10.6696 7.3152V7.316Z" fill="#13283F"/>
</g>
<defs>
<clipPath id="clip0_1120_291">
<rect width="16" height="16" fill="white"/>
</clipPath>
</defs>
</svg>
