<svg width="16" height="16" viewBox="0 0 16 16" fill="none" xmlns="http://www.w3.org/2000/svg">
<path d="M9.73291 8.33094C10.1927 7.97118 10.5283 7.47786 10.693 6.91959C10.8577 6.36132 10.8434 5.76587 10.652 5.21608C10.4606 4.66629 10.1016 4.18951 9.62508 3.85205C9.14852 3.51459 8.57804 3.33325 7.99302 3.33325C7.40801 3.33325 6.83753 3.51459 6.36097 3.85205C5.88441 4.18951 5.52546 4.66629 5.33406 5.21608C5.14266 5.76587 5.12832 6.36132 5.29305 6.91959C5.45777 7.47786 5.79337 7.97118 6.25314 8.33094C5.46531 8.64484 4.77789 9.16548 4.26419 9.83736C3.75048 10.5092 3.42973 11.3072 3.33614 12.1461C3.32937 12.2073 3.33479 12.2693 3.3521 12.3285C3.36941 12.3876 3.39827 12.4428 3.43702 12.4909C3.5153 12.588 3.62915 12.6502 3.75353 12.6638C3.8779 12.6774 4.00262 12.6413 4.10025 12.5634C4.19787 12.4856 4.2604 12.3724 4.27408 12.2487C4.37706 11.337 4.81419 10.4949 5.50195 9.88348C6.18971 9.27202 7.07989 8.934 8.0024 8.934C8.92492 8.934 9.81509 9.27202 10.5029 9.88348C11.1906 10.4949 11.6277 11.337 11.7307 12.2487C11.7435 12.3633 11.7985 12.4691 11.8851 12.5458C11.9717 12.6224 12.0838 12.6645 12.1997 12.6638H12.2513C12.3742 12.6497 12.4866 12.5879 12.5639 12.4918C12.6412 12.3957 12.6772 12.2731 12.664 12.1507C12.5699 11.3094 12.2475 10.5095 11.7311 9.83656C11.2148 9.16365 10.524 8.64318 9.73291 8.33094ZM7.99302 7.99979C7.62201 7.99979 7.25933 7.89038 6.95084 7.68538C6.64235 7.48039 6.40191 7.18903 6.25993 6.84813C6.11795 6.50724 6.0808 6.13213 6.15318 5.77024C6.22557 5.40835 6.40423 5.07594 6.66657 4.81503C6.92892 4.55412 7.26317 4.37644 7.62706 4.30446C7.99094 4.23247 8.36812 4.26942 8.71089 4.41062C9.05367 4.55182 9.34664 4.79094 9.55277 5.09774C9.75889 5.40453 9.86891 5.76522 9.86891 6.1342C9.86891 6.62899 9.67127 7.10351 9.31947 7.45337C8.96768 7.80324 8.49054 7.99979 7.99302 7.99979Z" fill="#13283F"/>
</svg>
