<svg width="70" height="64" viewBox="0 0 70 64" fill="none" xmlns="http://www.w3.org/2000/svg">
<path d="M66.6892 0.335327H3.33541C2.49529 0.335327 1.68958 0.669065 1.09552 1.26312C0.501462 1.85718 0.167725 2.66289 0.167725 3.50302V28.8445C0.167725 29.6846 0.501462 30.4904 1.09552 31.0844C1.68958 31.6785 2.49529 32.0122 3.33541 32.0122H12.8385V60.5214C12.8385 61.3615 13.1722 62.1672 13.7663 62.7613C14.3603 63.3554 15.166 63.6891 16.0062 63.6891H54.0184C54.8586 63.6891 55.6643 63.3554 56.2583 62.7613C56.8524 62.1672 57.1861 61.3615 57.1861 60.5214V32.0122H66.6892C67.5293 32.0122 68.335 31.6785 68.9291 31.0844C69.5231 30.4904 69.8569 29.6846 69.8569 28.8445V3.50302C69.8569 2.66289 69.5231 1.85718 68.9291 1.26312C68.335 0.669065 67.5293 0.335327 66.6892 0.335327ZM19.1739 57.3537V51.0183C20.8541 51.0183 22.4655 51.6858 23.6536 52.8739C24.8418 54.062 25.5092 55.6735 25.5092 57.3537H19.1739ZM50.8507 57.3537H44.5154C44.5154 55.6735 45.1828 54.062 46.371 52.8739C47.5591 51.6858 49.1705 51.0183 50.8507 51.0183V57.3537ZM50.8507 44.683C47.4902 44.683 44.2674 46.0179 41.8912 48.3941C39.5149 50.7704 38.18 53.9932 38.18 57.3537H31.8446C31.8446 53.9932 30.5097 50.7704 28.1334 48.3941C25.7572 46.0179 22.5343 44.683 19.1739 44.683V19.3415H50.8507V44.683ZM63.5215 25.6768H57.1861V16.1738C57.1861 15.3336 56.8524 14.5279 56.2583 13.9339C55.6643 13.3398 54.8586 13.0061 54.0184 13.0061H16.0062C15.166 13.0061 14.3603 13.3398 13.7663 13.9339C13.1722 14.5279 12.8385 15.3336 12.8385 16.1738V25.6768H6.5031V6.6707H63.5215V25.6768ZM35.0123 41.5153C36.8918 41.5153 38.7291 40.9579 40.2919 39.9137C41.8547 38.8695 43.0727 37.3853 43.792 35.6489C44.5113 33.9124 44.6994 32.0017 44.3328 30.1583C43.9661 28.3148 43.061 26.6216 41.732 25.2925C40.403 23.9635 38.7097 23.0584 36.8663 22.6917C35.0228 22.3251 33.1121 22.5133 31.3756 23.2325C29.6392 23.9518 28.155 25.1698 27.1108 26.7326C26.0666 28.2954 25.5092 30.1327 25.5092 32.0122C25.5092 34.5326 26.5104 36.9497 28.2926 38.7319C30.0748 40.5141 32.4919 41.5153 35.0123 41.5153ZM35.0123 28.8445C35.6388 28.8445 36.2512 29.0303 36.7722 29.3784C37.2931 29.7264 37.6991 30.2212 37.9389 30.8C38.1786 31.3788 38.2413 32.0157 38.1191 32.6302C37.9969 33.2447 37.6952 33.8091 37.2522 34.2521C36.8092 34.6951 36.2448 34.9968 35.6303 35.119C35.0158 35.2413 34.3789 35.1785 33.8001 34.9388C33.2213 34.699 32.7265 34.293 32.3785 33.7721C32.0304 33.2512 31.8446 32.6387 31.8446 32.0122C31.8446 31.1721 32.1783 30.3664 32.7724 29.7723C33.3665 29.1783 34.1722 28.8445 35.0123 28.8445Z" fill="#13283F"/>
</svg>
